<?xml version="1.0" encoding="utf-8"?>
<!-- Generator: Adobe Illustrator 16.0.0, SVG Export Plug-In . SVG Version: 6.00 Build 0)  -->
<!DOCTYPE svg PUBLIC "-//W3C//DTD SVG 1.1//EN" "http://www.w3.org/Graphics/SVG/1.1/DTD/svg11.dtd">
<svg version="1.1" id="Layer_1" xmlns="http://www.w3.org/2000/svg" xmlns:xlink="http://www.w3.org/1999/xlink" x="0px" y="0px"
	 width="1000px" height="2000px" viewBox="0 0 1000 2000" style="enable-background:new 0 0 1000 2000;" xml:space="preserve">
<style type="text/css">
<![CDATA[
	.st0{clip-path:url(#SVGID_30_);fill:#EC00FF;}
	.st1{clip-path:url(#SVGID_52_);fill:#EC00FF;}
	.st2{clip-path:url(#SVGID_4_);fill:#010101;}
	.st3{clip-path:url(#SVGID_4_);fill-rule:evenodd;clip-rule:evenodd;fill:#D1C597;}
	.st4{clip-path:url(#SVGID_4_);fill:#D1C597;}
	.st5{clip-path:url(#SVGID_20_);fill:#EC00FF;}
	.st6{clip-path:url(#SVGID_42_);fill:#EC00FF;}
	.st7{clip-path:url(#SVGID_4_);fill:#D6D3D0;}
	.st8{clip-path:url(#SVGID_4_);fill:#D6D8D0;}
	.st9{clip-path:url(#SVGID_4_);fill:#D8D6D0;}
	.st10{clip-path:url(#SVGID_10_);fill:#EC00FF;}
	.st11{clip-path:url(#SVGID_32_);fill:#EC00FF;}
	.st12{clip-path:url(#SVGID_54_);fill:#EC00FF;}
	.st13{clip-path:url(#SVGID_4_);fill-rule:evenodd;clip-rule:evenodd;fill:#DA252B;}
	.st14{clip-path:url(#SVGID_22_);fill:#EC00FF;}
	.st15{clip-path:url(#SVGID_44_);fill:#EC00FF;}
	.st16{clip-path:url(#SVGID_4_);fill-rule:evenodd;clip-rule:evenodd;fill:#414141;}
	.st17{clip-path:url(#SVGID_4_);fill:#414141;}
	.st18{clip-path:url(#SVGID_12_);fill:#EC00FF;}
	.st19{clip-path:url(#SVGID_34_);fill:#EC00FF;}
	.st20{clip-path:url(#SVGID_56_);fill:#EC00FF;}
	.st21{clip-path:url(#SVGID_4_);fill:#AF9ECC;}
	.st22{clip-path:url(#SVGID_24_);fill:#EC00FF;}
	.st23{clip-path:url(#SVGID_46_);fill:#EC00FF;}
	.st24{clip-path:url(#SVGID_14_);fill:#EC00FF;}
	.st25{clip-path:url(#SVGID_2_);}
	.st26{clip-path:url(#SVGID_36_);fill:#EC00FF;}
	.st27{clip-path:url(#SVGID_58_);fill:#EC00FF;}
	.st28{clip-path:url(#SVGID_4_);fill-rule:evenodd;clip-rule:evenodd;fill:#B5B2A9;}
	.st29{clip-path:url(#SVGID_4_);fill:#85DDD2;}
	.st30{clip-path:url(#SVGID_4_);fill:#B5B2AC;}
	.st31{clip-path:url(#SVGID_4_);fill-rule:evenodd;clip-rule:evenodd;fill:#B6B3AA;}
	.st32{clip-path:url(#SVGID_4_);fill:#B6B3AA;}
	.st33{clip-path:url(#SVGID_26_);fill:#EC00FF;}
	.st34{clip-path:url(#SVGID_48_);fill:#EC00FF;}
	.st35{clip-path:url(#SVGID_4_);fill-rule:evenodd;clip-rule:evenodd;fill:#EDEDED;}
	.st36{clip-path:url(#SVGID_4_);fill:#EDEDED;}
	.st37{clip-path:url(#SVGID_4_);fill:#EEEEEE;}
	.st38{clip-path:url(#SVGID_16_);fill:#EC00FF;}
	.st39{clip-path:url(#SVGID_38_);fill:#EC00FF;}
	.st40{clip-path:url(#SVGID_4_);fill-rule:evenodd;clip-rule:evenodd;fill:#8A8880;}
	.st41{clip-path:url(#SVGID_4_);fill:#8A8880;}
	.st42{clip-path:url(#SVGID_4_);fill:#585858;}
	.st43{clip-path:url(#SVGID_28_);fill:#EC00FF;}
	.st44{clip-path:url(#SVGID_6_);fill:#EC00FF;}
	.st45{clip-path:url(#SVGID_4_);fill-rule:evenodd;clip-rule:evenodd;fill:#F5F5F5;}
	.st46{clip-path:url(#SVGID_4_);fill:#F5A768;}
	.st47{clip-path:url(#SVGID_4_);fill:#F5F5F5;}
	.st48{clip-path:url(#SVGID_18_);fill:#EC00FF;}
	.st49{clip-path:url(#SVGID_4_);fill:#C4DE48;}
	.st50{clip-path:url(#SVGID_4_);fill-rule:evenodd;clip-rule:evenodd;fill:#FB4A60;}
	.st51{clip-path:url(#SVGID_8_);fill:#EC00FF;}
	.st52{clip-path:url(#SVGID_4_);fill-rule:evenodd;clip-rule:evenodd;fill:#2DD888;}
	.st53{clip-path:url(#SVGID_4_);fill:#2DD888;}
	.st54{clip-path:url(#SVGID_4_);fill-rule:evenodd;clip-rule:evenodd;fill:#FFFFFF;}
	.st55{clip-path:url(#SVGID_4_);fill:#FF475C;}
	.st56{clip-path:url(#SVGID_4_);fill:#FFFFFF;}
	.st57{clip-path:url(#SVGID_50_);fill:#EC00FF;}
	.st58{clip-path:url(#SVGID_40_);fill:#EC00FF;}
	.st59{opacity:0.1;clip-path:url(#SVGID_4_);}
]]>
</style>
<g>
	<defs>
		<rect id="SVGID_1_" width="1000" height="2000"/>
	</defs>
	<clipPath id="SVGID_2_">
		<use xlink:href="#SVGID_1_"  style="overflow:visible;"/>
	</clipPath>
	<g class="st25">
		<defs>
			<rect id="SVGID_3_" width="1000" height="2000"/>
		</defs>
		<clipPath id="SVGID_4_">
			<use xlink:href="#SVGID_3_"  style="overflow:visible;"/>
		</clipPath>
		<path class="st9" d="M12,1c6.1,0,11,4.9,11,11s-4.9,11-11,11S1,18.1,1,12S5.9,1,12,1 M12,0C5.4,0,0,5.4,0,12s5.4,12,12,12
			s12-5.4,12-12S18.6,0,12,0"/>
		<rect x="6" y="11" class="st32" width="12" height="2"/>
		<path class="st9" d="M62,1c6.1,0,11,4.9,11,11s-4.9,11-11,11s-11-4.9-11-11S55.9,1,62,1 M62,0c-6.6,0-12,5.4-12,12s5.4,12,12,12
			s12-5.4,12-12S68.6,0,62,0"/>
		<rect x="56" y="11" class="st32" width="12" height="2"/>
		<rect x="61" y="6" class="st32" width="2" height="12"/>
		<rect x="100" y="55" class="st32" width="12" height="2"/>
		<rect x="105" y="50" class="st32" width="2" height="12"/>
		<rect x="100" y="80" class="st9" width="12" height="2"/>
		<rect x="105" y="75" class="st9" width="2" height="12"/>
		<rect x="150" y="55" class="st55" width="12" height="2"/>
		<rect x="155" y="50" class="st55" width="2" height="12"/>
		<path class="st56" d="M112,1c6.1,0,11,4.9,11,11s-4.9,11-11,11s-11-4.9-11-11S105.9,1,112,1 M112,0c-6.6,0-12,5.4-12,12
			s5.4,12,12,12s12-5.4,12-12S118.6,0,112,0"/>
		<rect x="106" y="11" class="st56" width="12" height="2"/>
		<path class="st56" d="M162,1c6.1,0,11,4.9,11,11s-4.9,11-11,11s-11-4.9-11-11S155.9,1,162,1 M162,0c-6.6,0-12,5.4-12,12
			s5.4,12,12,12s12-5.4,12-12S168.6,0,162,0"/>
		<rect x="156" y="11" class="st56" width="12" height="2"/>
		<rect x="161" y="6" class="st56" width="2" height="12"/>
		<path class="st55" d="M209.2,2.3c-0.1-0.1-0.1-0.2,0-0.2l1.3-0.4c0.1,0,0.3-0.2,0.3-0.3l0.5-1.3c0-0.1,0.1-0.1,0.2,0l0.8,1.2
			c0.1,0.1,0.2,0.2,0.4,0.2l1.4,0c0.1,0,0.2,0.1,0.1,0.2l-0.9,1.1c-0.1,0.1-0.1,0.3-0.1,0.4l0.4,1.3c0,0.1,0,0.2-0.2,0.1l-1.3-0.5
			c-0.1,0-0.3,0-0.4,0.1L210.7,5c-0.1,0.1-0.2,0-0.2-0.1l0.1-1.4c0-0.1-0.1-0.3-0.2-0.4L209.2,2.3z"/>
		<path class="st55" d="M210.3,6.6c0.2-0.1,0.1-0.3-0.1-0.4l-2.4-0.6c-0.2-0.1-0.5-0.3-0.6-0.5l-0.9-2.3c-0.1-0.2-0.2-0.2-0.4,0
			L204.8,5c-0.1,0.2-0.4,0.4-0.6,0.4l-2.5,0.1c-0.2,0-0.3,0.2-0.1,0.3l1.6,1.9c0.1,0.2,0.2,0.5,0.2,0.7l-0.6,2.4
			c-0.1,0.2,0.1,0.3,0.3,0.2l2.3-0.9c0.2-0.1,0.5-0.1,0.7,0.1l2.1,1.3c0.2,0.1,0.3,0,0.3-0.2l-0.2-2.4c0-0.2,0.1-0.5,0.3-0.7
			L210.3,6.6z"/>
		<path class="st55" d="M201.6,3.5l0.8,0.3c0.1,0,0.1,0,0.1-0.1l-0.2-0.8c0-0.1,0-0.2,0-0.2l0.5-0.6c0-0.1,0-0.1-0.1-0.1l-0.8,0
			c-0.1,0-0.2-0.1-0.2-0.1l-0.4-0.7c0-0.1-0.1-0.1-0.1,0l-0.3,0.8c0,0.1-0.1,0.1-0.2,0.2l-0.8,0.2c-0.1,0-0.1,0.1,0,0.1l0.6,0.5
			c0.1,0,0.1,0.1,0.1,0.2l0,0.8c0,0.1,0,0.1,0.1,0.1l0.7-0.5C201.4,3.5,201.5,3.5,201.6,3.5"/>
		<path class="st55" d="M216.2,15.7l-1.7-1.7l-5.3-5.4c-0.2,0.2-0.4,0.6-0.3,0.8l0.1,2l5.7,5.7c0.3,0.3,0.8,0.4,1.1,0.1l0.5-0.5
			C216.6,16.5,216.5,16,216.2,15.7"/>
		<path class="st32" d="M259.2,2.3c-0.1-0.1-0.1-0.2,0-0.2l1.3-0.4c0.1,0,0.3-0.2,0.3-0.3l0.5-1.3c0-0.1,0.1-0.1,0.2,0l0.8,1.2
			c0.1,0.1,0.2,0.2,0.4,0.2l1.4,0c0.1,0,0.2,0.1,0.1,0.2l-0.9,1.1c-0.1,0.1-0.1,0.3-0.1,0.4l0.4,1.3c0,0.1,0,0.2-0.2,0.1l-1.3-0.5
			c-0.1,0-0.3,0-0.4,0.1L260.7,5c-0.1,0.1-0.2,0-0.2-0.1l0.1-1.4c0-0.1-0.1-0.3-0.2-0.4L259.2,2.3z"/>
		<path class="st32" d="M260.3,6.6c0.2-0.1,0.1-0.3-0.1-0.4l-2.4-0.6c-0.2-0.1-0.5-0.3-0.6-0.5l-0.9-2.3c-0.1-0.2-0.2-0.2-0.4,0
			L254.8,5c-0.1,0.2-0.4,0.4-0.6,0.4l-2.5,0.1c-0.2,0-0.3,0.2-0.1,0.3l1.6,1.9c0.1,0.2,0.2,0.5,0.2,0.7l-0.6,2.4
			c-0.1,0.2,0.1,0.3,0.3,0.2l2.3-0.9c0.2-0.1,0.5-0.1,0.7,0.1l2.1,1.3c0.2,0.1,0.3,0,0.3-0.2l-0.2-2.4c0-0.2,0.1-0.5,0.3-0.7
			L260.3,6.6z"/>
		<path class="st32" d="M251.6,3.5l0.8,0.3c0.1,0,0.1,0,0.1-0.1l-0.2-0.8c0-0.1,0-0.2,0-0.2l0.5-0.6c0-0.1,0-0.1-0.1-0.1l-0.8,0
			c-0.1,0-0.2-0.1-0.2-0.1l-0.4-0.7c0-0.1-0.1-0.1-0.1,0l-0.3,0.8c0,0.1-0.1,0.1-0.2,0.2l-0.8,0.2c-0.1,0-0.1,0.1,0,0.1l0.6,0.5
			c0.1,0,0.1,0.1,0.1,0.2l0,0.8c0,0.1,0,0.1,0.1,0.1l0.7-0.5C251.4,3.5,251.5,3.5,251.6,3.5"/>
		<path class="st32" d="M266.2,15.7l-1.7-1.7l-5.3-5.4c-0.2,0.2-0.4,0.6-0.3,0.8l0.1,2l5.7,5.7c0.3,0.3,0.8,0.4,1.1,0.1l0.5-0.5
			C266.6,16.5,266.5,16,266.2,15.7"/>
		<path class="st55" d="M351.7,3.5l0.8,0.3c0.1,0,0.1,0,0.1-0.1l-0.2-0.8c0-0.1,0-0.2,0-0.2l0.5-0.6c0-0.1,0-0.1-0.1-0.1l-0.8,0
			c-0.1,0-0.2-0.1-0.2-0.1l-0.4-0.7c0-0.1-0.1-0.1-0.1,0L351,1.9c0,0.1-0.1,0.1-0.2,0.2L350,2.3c-0.1,0-0.1,0.1,0,0.1l0.6,0.5
			c0.1,0,0.1,0.1,0.1,0.2l0,0.8c0,0.1,0,0.1,0.1,0.1l0.7-0.5C351.6,3.5,351.7,3.5,351.7,3.5"/>
		<path class="st56" d="M309.2,2.3c-0.1-0.1-0.1-0.2,0-0.2l1.3-0.4c0.1,0,0.3-0.2,0.3-0.3l0.5-1.3c0-0.1,0.1-0.1,0.2,0l0.8,1.2
			c0.1,0.1,0.2,0.2,0.4,0.2l1.4,0c0.1,0,0.2,0.1,0.1,0.2l-0.9,1.1c-0.1,0.1-0.1,0.3-0.1,0.4l0.4,1.3c0,0.1,0,0.2-0.2,0.1l-1.3-0.5
			c-0.1,0-0.3,0-0.4,0.1L310.7,5c-0.1,0.1-0.2,0-0.2-0.1l0.1-1.4c0-0.1-0.1-0.3-0.2-0.4L309.2,2.3z"/>
		<path class="st56" d="M310.3,6.6c0.2-0.1,0.1-0.3-0.1-0.4l-2.4-0.6c-0.2-0.1-0.5-0.3-0.6-0.5l-0.9-2.3c-0.1-0.2-0.2-0.2-0.4,0
			L304.8,5c-0.1,0.2-0.4,0.4-0.6,0.4l-2.5,0.1c-0.2,0-0.3,0.2-0.1,0.3l1.6,1.9c0.1,0.2,0.2,0.5,0.2,0.7l-0.6,2.4
			c-0.1,0.2,0.1,0.3,0.3,0.2l2.3-0.9c0.2-0.1,0.5-0.1,0.7,0.1l2.1,1.3c0.2,0.1,0.3,0,0.3-0.2l-0.2-2.4c0-0.2,0.1-0.5,0.3-0.7
			L310.3,6.6z"/>
		<path class="st56" d="M301.6,3.5l0.8,0.3c0.1,0,0.1,0,0.1-0.1l-0.2-0.8c0-0.1,0-0.2,0-0.2l0.5-0.6c0-0.1,0-0.1-0.1-0.1l-0.8,0
			c-0.1,0-0.2-0.1-0.2-0.1l-0.4-0.7c0-0.1-0.1-0.1-0.1,0l-0.3,0.8c0,0.1-0.1,0.1-0.2,0.2l-0.8,0.2c-0.1,0-0.1,0.1,0,0.1l0.6,0.5
			c0.1,0,0.1,0.1,0.1,0.2l0,0.8c0,0.1,0,0.1,0.1,0.1l0.7-0.5C301.4,3.5,301.5,3.5,301.6,3.5"/>
		<path class="st56" d="M316.2,15.7l-1.7-1.7l-5.3-5.4c-0.2,0.2-0.4,0.6-0.3,0.8l0.1,2l5.7,5.7c0.3,0.3,0.8,0.4,1.1,0.1l0.5-0.5
			C316.6,16.5,316.5,16,316.2,15.7"/>
		<g class="st59">
			<g>
				<defs>
					<rect id="SVGID_5_" x="299.3" y="48" width="50" height="2"/>
				</defs>
				<clipPath id="SVGID_6_">
					<use xlink:href="#SVGID_5_"  style="overflow:visible;"/>
				</clipPath>
				<rect x="299.3" y="48" class="st44" width="50" height="2"/>
			</g>
		</g>
		<g class="st59">
			<g>
				<defs>
					<rect id="SVGID_7_" x="400" y="98" width="50" height="2"/>
				</defs>
				<clipPath id="SVGID_8_">
					<use xlink:href="#SVGID_7_"  style="overflow:visible;"/>
				</clipPath>
				<rect x="400" y="98" class="st51" width="50" height="2"/>
			</g>
		</g>
		<g class="st59">
			<g>
				<defs>
					<rect id="SVGID_9_" x="450" y="98" width="50" height="2"/>
				</defs>
				<clipPath id="SVGID_10_">
					<use xlink:href="#SVGID_9_"  style="overflow:visible;"/>
				</clipPath>
				<rect x="450" y="98" class="st10" width="50" height="2"/>
			</g>
		</g>
		<g class="st59">
			<g>
				<defs>
					<rect id="SVGID_11_" x="500" y="98" width="50" height="2"/>
				</defs>
				<clipPath id="SVGID_12_">
					<use xlink:href="#SVGID_11_"  style="overflow:visible;"/>
				</clipPath>
				<rect x="500" y="98" class="st18" width="50" height="2"/>
			</g>
		</g>
		<g class="st59">
			<g>
				<defs>
					<rect id="SVGID_13_" x="700" y="48" width="50" height="2"/>
				</defs>
				<clipPath id="SVGID_14_">
					<use xlink:href="#SVGID_13_"  style="overflow:visible;"/>
				</clipPath>
				<rect x="700" y="48" class="st24" width="50" height="2"/>
			</g>
		</g>
		<g class="st59">
			<g>
				<defs>
					<rect id="SVGID_15_" x="750" y="48" width="50" height="2"/>
				</defs>
				<clipPath id="SVGID_16_">
					<use xlink:href="#SVGID_15_"  style="overflow:visible;"/>
				</clipPath>
				<rect x="750" y="48" class="st38" width="50" height="2"/>
			</g>
		</g>
		<g class="st59">
			<g>
				<defs>
					<rect id="SVGID_17_" x="800" y="48" width="50" height="2"/>
				</defs>
				<clipPath id="SVGID_18_">
					<use xlink:href="#SVGID_17_"  style="overflow:visible;"/>
				</clipPath>
				<rect x="800" y="48" class="st48" width="50" height="2"/>
			</g>
		</g>
		<g class="st59">
			<g>
				<defs>
					<rect id="SVGID_19_" x="850" y="48" width="50" height="2"/>
				</defs>
				<clipPath id="SVGID_20_">
					<use xlink:href="#SVGID_19_"  style="overflow:visible;"/>
				</clipPath>
				<rect x="850" y="48" class="st5" width="50" height="2"/>
			</g>
		</g>
		<g class="st59">
			<g>
				<defs>
					<rect id="SVGID_21_" x="950" y="48" width="50" height="2"/>
				</defs>
				<clipPath id="SVGID_22_">
					<use xlink:href="#SVGID_21_"  style="overflow:visible;"/>
				</clipPath>
				<rect x="950" y="48" class="st14" width="50" height="2"/>
			</g>
		</g>
		<g class="st59">
			<g>
				<defs>
					<rect id="SVGID_23_" x="100" y="48" width="50" height="2"/>
				</defs>
				<clipPath id="SVGID_24_">
					<use xlink:href="#SVGID_23_"  style="overflow:visible;"/>
				</clipPath>
				<rect x="100" y="48" class="st22" width="50" height="2"/>
			</g>
		</g>
		<g class="st59">
			<g>
				<defs>
					<rect id="SVGID_25_" y="98" width="50" height="2"/>
				</defs>
				<clipPath id="SVGID_26_">
					<use xlink:href="#SVGID_25_"  style="overflow:visible;"/>
				</clipPath>
				<rect y="98" class="st33" width="50" height="2"/>
			</g>
		</g>
		<g class="st59">
			<g>
				<defs>
					<rect id="SVGID_27_" y="448" width="50" height="2"/>
				</defs>
				<clipPath id="SVGID_28_">
					<use xlink:href="#SVGID_27_"  style="overflow:visible;"/>
				</clipPath>
				<rect y="448" class="st43" width="50" height="2"/>
			</g>
		</g>
		<g class="st59">
			<g>
				<defs>
					<rect id="SVGID_29_" x="50" y="448" width="50" height="2"/>
				</defs>
				<clipPath id="SVGID_30_">
					<use xlink:href="#SVGID_29_"  style="overflow:visible;"/>
				</clipPath>
				<rect x="50" y="448" class="st0" width="50" height="2"/>
			</g>
		</g>
		<g class="st59">
			<g>
				<defs>
					<rect id="SVGID_31_" x="100" y="448" width="50" height="2"/>
				</defs>
				<clipPath id="SVGID_32_">
					<use xlink:href="#SVGID_31_"  style="overflow:visible;"/>
				</clipPath>
				<rect x="100" y="448" class="st11" width="50" height="2"/>
			</g>
		</g>
		<g class="st59">
			<g>
				<defs>
					<rect id="SVGID_33_" x="150" y="448" width="50" height="2"/>
				</defs>
				<clipPath id="SVGID_34_">
					<use xlink:href="#SVGID_33_"  style="overflow:visible;"/>
				</clipPath>
				<rect x="150" y="448" class="st19" width="50" height="2"/>
			</g>
		</g>
		<g class="st59">
			<g>
				<defs>
					<rect id="SVGID_35_" x="200" y="448" width="50" height="2"/>
				</defs>
				<clipPath id="SVGID_36_">
					<use xlink:href="#SVGID_35_"  style="overflow:visible;"/>
				</clipPath>
				<rect x="200" y="448" class="st26" width="50" height="2"/>
			</g>
		</g>
		<g class="st59">
			<g>
				<defs>
					<rect id="SVGID_37_" x="250" y="448" width="50" height="2"/>
				</defs>
				<clipPath id="SVGID_38_">
					<use xlink:href="#SVGID_37_"  style="overflow:visible;"/>
				</clipPath>
				<rect x="250" y="448" class="st39" width="50" height="2"/>
			</g>
		</g>
		<g class="st59">
			<g>
				<defs>
					<rect id="SVGID_39_" x="300" y="448" width="50" height="2"/>
				</defs>
				<clipPath id="SVGID_40_">
					<use xlink:href="#SVGID_39_"  style="overflow:visible;"/>
				</clipPath>
				<rect x="300" y="448" class="st58" width="50" height="2"/>
			</g>
		</g>
		<g class="st59">
			<g>
				<defs>
					<rect id="SVGID_41_" x="350" y="448" width="50" height="2"/>
				</defs>
				<clipPath id="SVGID_42_">
					<use xlink:href="#SVGID_41_"  style="overflow:visible;"/>
				</clipPath>
				<rect x="350" y="448" class="st6" width="50" height="2"/>
			</g>
		</g>
		<g class="st59">
			<g>
				<defs>
					<rect id="SVGID_43_" x="400" y="448" width="50" height="2"/>
				</defs>
				<clipPath id="SVGID_44_">
					<use xlink:href="#SVGID_43_"  style="overflow:visible;"/>
				</clipPath>
				<rect x="400" y="448" class="st15" width="50" height="2"/>
			</g>
		</g>
		<g class="st59">
			<g>
				<defs>
					<rect id="SVGID_45_" x="450" y="448" width="50" height="2"/>
				</defs>
				<clipPath id="SVGID_46_">
					<use xlink:href="#SVGID_45_"  style="overflow:visible;"/>
				</clipPath>
				<rect x="450" y="448" class="st23" width="50" height="2"/>
			</g>
		</g>
		<g class="st59">
			<g>
				<defs>
					<rect id="SVGID_47_" x="500" y="448" width="50" height="2"/>
				</defs>
				<clipPath id="SVGID_48_">
					<use xlink:href="#SVGID_47_"  style="overflow:visible;"/>
				</clipPath>
				<rect x="500" y="448" class="st34" width="50" height="2"/>
			</g>
		</g>
		<g class="st59">
			<g>
				<defs>
					<rect id="SVGID_49_" x="550" y="448" width="50" height="2"/>
				</defs>
				<clipPath id="SVGID_50_">
					<use xlink:href="#SVGID_49_"  style="overflow:visible;"/>
				</clipPath>
				<rect x="550" y="448" class="st57" width="50" height="2"/>
			</g>
		</g>
		<g class="st59">
			<g>
				<defs>
					<rect id="SVGID_51_" x="600" y="448" width="50" height="2"/>
				</defs>
				<clipPath id="SVGID_52_">
					<use xlink:href="#SVGID_51_"  style="overflow:visible;"/>
				</clipPath>
				<rect x="600" y="448" class="st1" width="50" height="2"/>
			</g>
		</g>
		<g class="st59">
			<g>
				<defs>
					<rect id="SVGID_53_" x="50" y="98" width="50" height="2"/>
				</defs>
				<clipPath id="SVGID_54_">
					<use xlink:href="#SVGID_53_"  style="overflow:visible;"/>
				</clipPath>
				<rect x="50" y="98" class="st12" width="50" height="2"/>
			</g>
		</g>
		<g class="st59">
			<g>
				<defs>
					<rect id="SVGID_55_" x="200" y="98" width="50" height="2"/>
				</defs>
				<clipPath id="SVGID_56_">
					<use xlink:href="#SVGID_55_"  style="overflow:visible;"/>
				</clipPath>
				<rect x="200" y="98" class="st20" width="50" height="2"/>
			</g>
		</g>
		<g class="st59">
			<g>
				<defs>
					<rect id="SVGID_57_" x="150" y="48" width="50" height="2"/>
				</defs>
				<clipPath id="SVGID_58_">
					<use xlink:href="#SVGID_57_"  style="overflow:visible;"/>
				</clipPath>
				<rect x="150" y="48" class="st27" width="50" height="2"/>
			</g>
		</g>
		<path class="st55" d="M364.6,14l-3.5-3.6l-1.5,1.5l5.3,5.3c0.3,0.3,0.8,0.4,1.1,0.1l0.5-0.5c0.3-0.3,0.2-0.8-0.1-1.1L364.6,14z"/>
		<path class="st55" d="M360.5,3.1c0.1,0.1,0.2,0.2,0.2,0.4l-0.1,1.4c0,0.1,0.1,0.2,0.2,0.1l1.1-0.8c0.1-0.1,0.3-0.1,0.4-0.1l0.1,0
			l1-1l0,0c0-0.1,0-0.3,0.1-0.4l0.9-1.1c0.1-0.1,0-0.2-0.1-0.2l-1.4,0c-0.1,0-0.3-0.1-0.4-0.2l-0.8-1.2c-0.1-0.1-0.2-0.1-0.2,0
			l-0.5,1.3c0,0.1-0.2,0.3-0.3,0.3l-1.3,0.4c-0.1,0-0.1,0.1,0,0.2L360.5,3.1z"/>
		<path class="st55" d="M353.4,8.4l-0.6,2.4c-0.1,0.2,0.1,0.3,0.3,0.2l2.3-0.9c0.2-0.1,0.5-0.1,0.7,0.1l0.2,0.2l4-4L358,5.7
			c-0.2-0.1-0.5-0.3-0.6-0.5l-0.9-2.3c-0.1-0.2-0.2-0.2-0.4,0L354.9,5c-0.1,0.2-0.4,0.4-0.6,0.4l-2.5,0.1c-0.2,0-0.3,0.2-0.1,0.3
			l1.6,1.9C353.4,7.8,353.5,8.2,353.4,8.4"/>
		
			<rect x="358.9" y="-0.6" transform="matrix(0.7073 0.7069 -0.7069 0.7073 111.948 -251.3776)" class="st55" width="1.2" height="20.1"/>
		<path class="st32" d="M401.9,3.5l0.8,0.3c0.1,0,0.1,0,0.1-0.1l-0.2-0.8c0-0.1,0-0.2,0-0.2L403,2c0-0.1,0-0.1-0.1-0.1l-0.8,0
			c-0.1,0-0.2-0.1-0.2-0.1l-0.4-0.7c0-0.1-0.1-0.1-0.1,0l-0.3,0.8c0,0.1-0.1,0.1-0.2,0.2l-0.8,0.2c-0.1,0-0.1,0.1,0,0.1l0.6,0.5
			c0.1,0,0.1,0.1,0.1,0.2l0,0.8c0,0.1,0,0.1,0.1,0.1l0.7-0.5C401.7,3.5,401.8,3.5,401.9,3.5"/>
		<path class="st32" d="M414.8,14l-3.6-3.6l-1.5,1.5l5.3,5.3c0.3,0.3,0.8,0.4,1.1,0.1l0.5-0.5c0.3-0.3,0.2-0.8-0.1-1.1L414.8,14z"/>
		<path class="st32" d="M410.6,3.1c0.1,0.1,0.2,0.2,0.2,0.4l-0.1,1.4c0,0.1,0.1,0.2,0.2,0.1l1.1-0.8c0.1-0.1,0.3-0.1,0.4-0.1l0.1,0
			l1-1l0,0c0-0.1,0-0.3,0.1-0.4l0.9-1.1c0.1-0.1,0-0.2-0.1-0.2l-1.4,0c-0.1,0-0.3-0.1-0.4-0.2l-0.8-1.2c-0.1-0.1-0.2-0.1-0.2,0
			l-0.5,1.3c0,0.1-0.2,0.3-0.3,0.3l-1.3,0.4c-0.1,0-0.1,0.1,0,0.2L410.6,3.1z"/>
		<path class="st32" d="M403.6,8.4l-0.6,2.4c-0.1,0.2,0.1,0.3,0.3,0.2l2.3-0.9c0.2-0.1,0.5-0.1,0.7,0.1l0.2,0.2l4-4l-2.4-0.6
			c-0.2-0.1-0.5-0.3-0.6-0.5l-0.9-2.3c-0.1-0.2-0.2-0.2-0.4,0L405.1,5c-0.1,0.2-0.4,0.4-0.6,0.4L402,5.5c-0.2,0-0.3,0.2-0.1,0.3
			l1.6,1.9C403.6,7.8,403.6,8.2,403.6,8.4"/>
		
			<rect x="409.1" y="-0.6" transform="matrix(0.7073 0.7069 -0.7069 0.7073 126.6269 -286.83)" class="st32" width="1.2" height="20.1"/>
		<polygon class="st54" points="18,51 17,50 9,58 1,50 0,51 8,59 0,67 1,68 9,60 17,68 18,67 10,59 		"/>
		<polygon class="st56" points="62,51 61,50 56,55 50.9,50 50,51 55,56 50,61 51,62 56,57 61,62 62,61 57,56 		"/>
		<polygon class="st56" points="212,51 211,50 206,55 201,50 200.1,50.9 205.1,55.9 200,61 201,62 206.1,56.9 211,62 212,61 207,56 
					"/>
		<path class="st42" d="M300,96c0,2.2-1.8,4-4,4h-42c-2.2,0-4-1.8-4-4V54c0-2.2,1.8-4,4-4h42c2.2,0,4,1.8,4,4V96z"/>
		<path class="st55" d="M275,73.8c-0.4,0-0.8,0.3-0.8,0.8v10.6l-1.8-1.8c-0.3-0.3-0.8-0.3-1.1,0c-0.3,0.3-0.3,0.8,0,1.1l3.1,3.1
			c0.2,0.2,0.4,0.2,0.5,0.2c0.2,0,0.4-0.1,0.5-0.2l3.1-3.1c0.3-0.3,0.3-0.8,0-1.1c-0.3-0.3-0.8-0.3-1.1,0l-1.8,1.8V74.5
			C275.8,74.2,275.4,73.8,275,73.8"/>
		<path class="st55" d="M286.7,66h-23.3c-0.4,0-0.8,0.3-0.8,0.8v14c0,0.4,0.3,0.8,0.8,0.8h8.5c0.4,0,0.8-0.3,0.8-0.8
			c0-0.4-0.3-0.8-0.8-0.8h-7.8V67.6h21.8V80h-7.8c-0.4,0-0.8,0.3-0.8,0.8c0,0.4,0.3,0.8,0.8,0.8h8.5c0.4,0,0.8-0.3,0.8-0.8v-14
			C287.4,66.3,287.1,66,286.7,66"/>
		<path class="st55" d="M350,96c0,2.2-1.8,4-4,4h-42c-2.2,0-4-1.8-4-4V54c0-2.2,1.8-4,4-4h42c2.2,0,4,1.8,4,4V96z"/>
		<path class="st56" d="M325,73.8c-0.4,0-0.8,0.3-0.8,0.8v10.6l-1.8-1.8c-0.3-0.3-0.8-0.3-1.1,0c-0.3,0.3-0.3,0.8,0,1.1l3.1,3.1
			c0.2,0.2,0.4,0.2,0.5,0.2c0.2,0,0.4-0.1,0.5-0.2l3.1-3.1c0.3-0.3,0.3-0.8,0-1.1c-0.3-0.3-0.8-0.3-1.1,0l-1.8,1.8V74.5
			C325.8,74.2,325.4,73.8,325,73.8"/>
		<path class="st56" d="M336.7,66h-23.3c-0.4,0-0.8,0.3-0.8,0.8v14c0,0.4,0.3,0.8,0.8,0.8h8.5c0.4,0,0.8-0.3,0.8-0.8
			c0-0.4-0.3-0.8-0.8-0.8h-7.8V67.6h21.8V80h-7.8c-0.4,0-0.8,0.3-0.8,0.8c0,0.4,0.3,0.8,0.8,0.8h8.5c0.4,0,0.8-0.3,0.8-0.8v-14
			C337.4,66.3,337.1,66,336.7,66"/>
		<path class="st35" d="M12,151H7v-1H5v1H0v1h1v10c0,1,1,1,1,1h8c1,0,1-1,1-1v-9h-1v8c0,1-1,1-1,1H3c-1,0-1-1-1-1v-9h10V151z M5,153
			H4v8h1V153z M8,153H7v8h1V153z"/>
		<path class="st31" d="M62,151h-5v-1h-2v1h-5v1h1v10c0,1,1,1,1,1h8c1,0,1-1,1-1v-9h-1v8c0,1-1,1-1,1h-6c-1,0-1-1-1-1v-9h10V151z
			 M55,153h-1v8h1V153z M58,153h-1v8h1V153z"/>
		<path class="st36" d="M10.5,112h-9c-1.1,0-1.5-0.9-1.5-1.5v-9c0-1.1,0.9-1.5,1.5-1.5H6v1H1.5c-0.2,0-0.5,0.1-0.5,0.5v9
			c0,0.2,0.1,0.5,0.5,0.5h9c0.2,0,0.5-0.1,0.5-0.5V106h1v4.5C12,111.6,11.1,112,10.5,112"/>
		
			<rect x="3.5" y="103.6" transform="matrix(-0.7071 0.7071 -0.7071 -0.7071 86.196 174.2965)" class="st36" width="7.1" height="2.8"/>
		<polygon class="st36" points="3,107 5,109 3,109 		"/>
		<path class="st32" d="M60.5,112h-9c-1.1,0-1.5-0.9-1.5-1.5v-9c0-1.1,0.9-1.5,1.5-1.5H56v1h-4.5c-0.2,0-0.5,0.1-0.5,0.5v9
			c0,0.2,0.1,0.5,0.5,0.5h9c0.2,0,0.5-0.1,0.5-0.5V106h1v4.5C62,111.6,61.1,112,60.5,112"/>
		
			<rect x="53.5" y="103.6" transform="matrix(-0.7071 0.7071 -0.7071 -0.7071 171.5513 138.9411)" class="st32" width="7.1" height="2.8"/>
		<polygon class="st32" points="53,107 55,109 53,109 		"/>
		<path class="st13" d="M112,151h-5v-1h-2v1h-5v1h1v10c0,1,1,1,1,1h8c1,0,1-1,1-1v-9h-1v8c0,1-1,1-1,1h-6c-1,0-1-1-1-1v-9h10V151z
			 M105,153h-1v8h1V153z M108,153h-1v8h1V153z"/>
		<path class="st41" d="M110.5,112h-9c-1.1,0-1.5-0.9-1.5-1.5v-9c0-1.1,0.9-1.5,1.5-1.5h4.5v1h-4.5c-0.2,0-0.5,0.1-0.5,0.5v9
			c0,0.2,0.1,0.5,0.5,0.5h9c0.2,0,0.5-0.1,0.5-0.5V106h1v4.5C112,111.6,111.1,112,110.5,112"/>
		
			<rect x="103.5" y="103.6" transform="matrix(-0.7071 0.7071 -0.7071 -0.7071 256.9066 103.5858)" class="st41" width="7.1" height="2.8"/>
		<polygon class="st41" points="103,107 105,109 103,109 		"/>
		
			<rect x="9.8" y="100.1" transform="matrix(0.7071 -0.7071 0.7071 0.7071 -68.696 37.1533)" class="st36" width="1.4" height="2.8"/>
		<path class="st41" d="M156,106h-6v-6h6V106z M151,105h4v-4h-4V105z"/>
		<path class="st41" d="M163,106h-6v-6h6V106z M158,105h4v-4h-4V105z"/>
		<path class="st41" d="M156,113h-6v-6h6V113z M151,112h4v-4h-4V112z"/>
		<path class="st41" d="M163,113h-6v-6h6V113z M158,112h4v-4h-4V112z"/>
		<rect x="151" y="101" class="st47" width="4" height="4"/>
		<rect x="158" y="101" class="st47" width="4" height="4"/>
		<rect x="151" y="108" class="st47" width="4" height="4"/>
		<rect x="158" y="108" class="st47" width="4" height="4"/>
		<path class="st41" d="M206,113h-6v-13h6V113z M201,112h4v-11h-4V112z"/>
		<path class="st41" d="M213,105h-6v-5h6V105z M208,104h4v-3h-4V104z"/>
		<path class="st41" d="M213,113h-6v-7h6V113z M208,112h4v-5h-4V112z"/>
		<rect x="201" y="101" class="st47" width="4" height="11"/>
		<rect x="208" y="101" class="st47" width="4" height="3"/>
		<rect x="208" y="107" class="st47" width="4" height="5"/>
		<path class="st41" d="M263,109h-13v-9h13V109z M251,108h11v-7h-11V108z"/>
		<path class="st41" d="M263,113h-13v-3h13V113z M251,112h11v-1h-11V112z"/>
		<rect x="251" y="101" class="st47" width="11" height="7"/>
		<rect x="251" y="111" class="st47" width="11" height="1"/>
		<path class="st7" d="M156,156h-6v-6h6V156z M151,155h4v-4h-4V155z"/>
		<path class="st7" d="M163,156h-6v-6h6V156z M158,155h4v-4h-4V155z"/>
		<path class="st7" d="M156,163h-6v-6h6V163z M151,162h4v-4h-4V162z"/>
		<path class="st7" d="M163,163h-6v-6h6V163z M158,162h4v-4h-4V162z"/>
		<rect x="151" y="151" class="st47" width="4" height="4"/>
		<rect x="158" y="151" class="st47" width="4" height="4"/>
		<rect x="151" y="158" class="st47" width="4" height="4"/>
		<rect x="158" y="158" class="st47" width="4" height="4"/>
		<path class="st7" d="M206,163h-6v-13h6V163z M201,162h4v-11h-4V162z"/>
		<path class="st7" d="M213,155h-6v-5h6V155z M208,154h4v-3h-4V154z"/>
		<path class="st7" d="M213,163h-6v-7h6V163z M208,162h4v-5h-4V162z"/>
		<rect x="201" y="151" class="st47" width="4" height="11"/>
		<rect x="208" y="151" class="st47" width="4" height="3"/>
		<rect x="208" y="157" class="st47" width="4" height="5"/>
		<path class="st7" d="M206,146h-6v-13h6V146z M201,145h4v-11h-4V145z"/>
		<path class="st7" d="M213,138h-6v-5h6V138z M208,137h4v-3h-4V137z"/>
		<path class="st7" d="M213,146h-6v-7h6V146z M208,145h4v-5h-4V145z"/>
		<path class="st7" d="M263,159h-13v-9h13V159z M251,158h11v-7h-11V158z"/>
		<path class="st7" d="M263,163h-13v-3h13V163z M251,162h11v-1h-11V162z"/>
		<rect x="251" y="151" class="st47" width="11" height="7"/>
		<rect x="251" y="161" class="st47" width="11" height="1"/>
		<path class="st32" d="M356.5,65c3.6,0,6.5-2.9,6.5-6.5c0-0.2,0-0.3,0-0.5h-2c0,0.2,0,0.3,0,0.5c0,2.5-2,4.5-4.5,4.5
			c-2.5,0-4.5-2-4.5-4.5c0-2.3,1.8-4.2,4-4.5v2l4-3l-4-3v2c-3.4,0.3-6,3.1-6,6.5C350,62.1,352.9,65,356.5,65"/>
		<path class="st56" d="M406.5,65c3.6,0,6.5-2.9,6.5-6.5c0-0.2,0-0.3,0-0.5h-2c0,0.2,0,0.3,0,0.5c0,2.5-2,4.5-4.5,4.5
			c-2.5,0-4.5-2-4.5-4.5c0-2.3,1.8-4.2,4-4.5v2l4-3l-4-3v2c-3.4,0.3-6,3.1-6,6.5C400,62.1,402.9,65,406.5,65"/>
		<path class="st56" d="M2,225.5c-0.8,0-1.5-0.7-1.5-1.5v-22c0-0.8,0.7-1.5,1.5-1.5h11c0.8,0,1.5,0.7,1.5,1.5v22
			c0,0.8-0.7,1.5-1.5,1.5H2z"/>
		<path class="st32" d="M13,201c0.6,0,1,0.4,1,1v22c0,0.6-0.4,1-1,1H2c-0.6,0-1-0.4-1-1v-22c0-0.6,0.4-1,1-1H13 M13,200H2
			c-1.1,0-2,0.9-2,2v22c0,1.1,0.9,2,2,2h11c1.1,0,2-0.9,2-2v-22C15,200.9,14.1,200,13,200"/>
		<rect x="4" y="207" class="st8" width="1" height="12"/>
		<rect x="6" y="207" class="st8" width="1" height="12"/>
		<rect x="8" y="207" class="st8" width="1" height="12"/>
		<rect x="10" y="207" class="st8" width="1" height="12"/>
		<polygon class="st55" points="450,24 474,0 450,0 		"/>
		<polygon class="st29" points="500.1,24 524.1,0 500.1,0 		"/>
		<polygon class="st49" points="550,24 574,0 550,0 		"/>
		<polygon class="st46" points="600,24 624,0 600,0 		"/>
		<polygon class="st21" points="650,24 674,0 650,0 		"/>
		<path class="st56" d="M815,1v11c0,0.3-0.7,1-1,1h-13c-1,0-1-1-1-1V1c0-1,1-1,1-1h13c0.2,0,0.8,0.2,0.8,0.5c0,0.2,0,0.4-0.1,0.5
			l-6.8,6.8c-0.2,0.2-0.5,0.2-0.7,0L800.3,1c-0.2-0.2-0.2-0.5,0-0.7c0.2-0.2,0.5-0.2,0.7,0l6.5,6.5l5.8-5.8H801v11h13V1"/>
		<path class="st56" d="M703.1,4.9c0.2,0.2,0.5,0.2,0.7,0l3.1-3.1V9c0,0.3,0.2,0.5,0.5,0.5S708,9.3,708,9V1.7l3.1,3.1
			c0.1,0.1,0.2,0.1,0.4,0.1c0.1,0,0.3,0,0.4-0.1c0.2-0.2,0.2-0.5,0-0.7l-4-4c0,0-0.1-0.1-0.2-0.1c-0.1-0.1-0.3-0.1-0.4,0
			c-0.1,0-0.1,0.1-0.2,0.1l-4,4C703,4.3,703,4.7,703.1,4.9"/>
		<path class="st56" d="M714.5,0h-2c-0.3,0-0.5,0.2-0.5,0.5s0.2,0.5,0.5,0.5h1.5v11h-13V1h1.5c0.3,0,0.5-0.2,0.5-0.5
			S702.8,0,702.5,0h-2c-0.3,0-0.5,0.2-0.5,0.5v12c0,0.3,0.2,0.5,0.5,0.5h14c0.3,0,0.5-0.2,0.5-0.5v-12C715,0.2,714.8,0,714.5,0"/>
		<path class="st56" d="M860,2h-1V0h-9v10h2c0,0.6,0.4,1,1,1h7c0.6,0,1-0.4,1-1V3C861,2.4,860.6,2,860,2 M851,9V1h7v1h-5
			c-0.6,0-1,0.4-1,1v6H851z"/>
		<path class="st56" d="M755.5,1c2.5,0,4.5,2,4.5,4.5s-2,4.5-4.5,4.5c-2.5,0-4.5-2-4.5-4.5S753,1,755.5,1 M755.5,0
			c-3,0-5.5,2.5-5.5,5.5s2.5,5.5,5.5,5.5s5.5-2.5,5.5-5.5S758.5,0,755.5,0"/>
		<polygon class="st54" points="760,9 759,9 759,10 763,14 764,13 		"/>
		<path class="st56" d="M459,58l-8.4-3.9l8.4-3.9l8.4,3.9L459,58z M453.4,54.1l5.6,2.6l5.6-2.6l-5.6-2.6L453.4,54.1z"/>
		<polygon class="st56" points="459,61.6 450.3,57.6 450.9,56.5 459,60.3 467.2,56.5 467.7,57.6 		"/>
		<polygon class="st56" points="459,64.9 450.3,60.9 450.9,59.8 459,63.6 467.2,59.8 467.7,60.9 		"/>
		<path class="st55" d="M915,1v11c0,0.3-0.7,1-1,1h-13c-1,0-1-1-1-1V1c0-1,1-1,1-1h13c0.2,0,0.8,0.2,0.8,0.5c0,0.2,0,0.4-0.1,0.5
			l-6.8,6.8c-0.2,0.2-0.5,0.2-0.7,0L900.3,1c-0.2-0.2-0.2-0.5,0-0.7c0.2-0.2,0.5-0.2,0.7,0l6.5,6.5l5.8-5.8H901v11h13V1"/>
		<path class="st17" d="M625,112c3.6,0,9,2.7,9,10c0,6.7-7.7,12.9-9,13c-1.3-0.1-9-6.3-9-13C616,114.7,621.4,112,625,112 M625,111
			c-4,0-10,3-10,11c0,7,8,14,10,14s10-7,10-14C635,114,629,111,625,111"/>
		<path class="st17" d="M621.5,127.9L621.5,127.9c-1.3,0-2.8-0.8-3.8-2.1c-1.5-2-1.8-5-0.6-6.2c0.3-0.3,0.8-0.5,1.3-0.5
			c1.3,0,2.9,1.1,4,2.7c1.4,2,1.7,4.6,0.6,5.5C622.6,127.7,622.1,127.9,621.5,127.9 M618.4,120.1c-0.3,0-0.5,0.1-0.6,0.2
			c-0.8,0.8-0.6,3.2,0.7,4.9c0.8,1,2,1.7,3,1.7c0.4,0,0.7-0.1,0.9-0.3c0.5-0.5,0.4-2.4-0.8-4.2C620.7,121.1,619.3,120.1,618.4,120.1
			"/>
		<path class="st17" d="M628.6,127.9c-0.6,0-1.2-0.2-1.6-0.6c-1.1-0.9-0.8-3.5,0.6-5.5c1.1-1.6,2.8-2.7,4-2.7c0.5,0,1,0.2,1.3,0.5
			c1.2,1.2,0.9,4.2-0.6,6.2C631.4,127.1,629.9,127.9,628.6,127.9 M631.6,120.1c-0.9,0-2.3,1-3.2,2.3c-1.2,1.8-1.3,3.7-0.8,4.2
			c0.9,0.8,2.9,0,3.9-1.4c1.3-1.7,1.5-4.1,0.7-4.9C632.1,120.2,631.9,120.1,631.6,120.1"/>
		<path class="st17" d="M579,116c-0.2-1.2-1-3-3.5-3s-3.3,1.8-3.5,3h-6v16h19v-16H579z M575.5,114c1.8,0,2.3,1.3,2.4,2h-4.9
			C573.2,115.3,573.7,114,575.5,114 M584,117v7h-6v-1v-1h-1h-3h-1v1v1h-6v-7H584z M574,124v-1h3v2h-3V124z M567,131v-6h6v1h1h3h1v-1
			h6v6H567z"/>
		<path class="st17" d="M535,113.5c0-0.1,0-0.1,0-0.2c0,0,0,0,0,0c0-0.1-0.1-0.1-0.1-0.2c0,0,0,0,0,0c0,0,0,0,0,0c0,0,0,0,0,0
			c-0.1,0-0.1-0.1-0.2-0.1c0,0,0,0,0,0c-0.1,0-0.2,0-0.2,0.1c0,0,0,0,0,0l-22,12c-0.2,0.1-0.3,0.3-0.3,0.5c0,0.2,0.2,0.4,0.3,0.4
			l5.8,1.9l1.9,6.7c0.1,0.2,0.2,0.3,0.4,0.4c0,0,0,0,0.1,0c0.1,0,0.2,0,0.3-0.1l0,0l5.8-3.9l5.8,1.9c0.1,0,0.3,0,0.4-0.1
			c0.1-0.1,0.2-0.2,0.2-0.4L535,113.5C535,113.5,535,113.5,535,113.5 M513.8,125.4l17-9.3l-12.4,10.8L513.8,125.4z M519.1,127.7
			l12.8-11.2l-8.7,12.7c0,0,0,0,0,0c0,0,0,0,0,0l-2.4,4L519.1,127.7z M522.1,132.9l1.6-2.8l1.7,0.5L522.1,132.9z M532.1,131.8
			l-7.8-2.6l9.5-13.8L532.1,131.8z"/>
		<path class="st17" d="M485.3,120C485.2,120,485.2,120,485.3,120c-1.6-4.1-5.6-7-10.3-7c-0.1,0-0.2,0-0.2,0c0,0,0,0,0,0
			c0,0-0.1,0-0.1,0c-0.1,0-0.2,0-0.3,0c-4.4,0.2-8.3,2.9-9.9,7c-0.1,0-0.2,0-0.3,0c-1,0-2.3,0.6-2.3,3.2c0,1.1,0.5,2.2,1.6,3.3
			c0.1,0.1,0.3,0.3,0.4,0.4c1,5.2,4.8,8,10.7,8c0.1,0,0.1,0,0.2,0c0,0,0,0,0.1,0c0.2,0,0.4,0,0.6,0c0.1,0,0.1,0,0.2,0
			c5.5-0.3,9-3.3,9.9-8.3c0,0,0.1-0.1,0.1-0.1c0.8-0.8,1.6-2.3,1.6-3.4C487.5,120.6,486.3,120,485.3,120 M464.1,125.6
			c-0.7-0.9-1.1-1.6-1.1-2.3c0-2.2,0.9-2.2,1.3-2.2c0.1,0,0.1,0,0.2,0c-0.3,0.9-0.4,1.9-0.4,3C464,124.5,464,125.1,464.1,125.6
			 M484.5,126.6c-0.9,4.5-4,7.1-8.7,7.4c-0.1,0-0.2,0-0.3,0c-0.2,0-0.4,0-0.5,0c-8.6,0-9.9-6.3-9.9-10c0-4.3,2.8-8,6.6-9.4
			c-0.6,0.4-1.1,1-1.1,1.9c0,0.4,0.2,1.1,1,1.6c0.7,0.4,1.7,0.6,2.7,0.6c1,0,2-0.2,2.5-0.5c0.6-0.4,0.8-0.8,0.8-1.1
			c0-0.3-0.2-0.6-0.4-0.8c-0.9-0.6-2.8-0.4-3.7-0.1l0.3,0.9c1-0.3,2.7-0.3,2.8,0c0,0.1-0.1,0.2-0.3,0.3c-0.9,0.5-3.1,0.6-4.2-0.1
			c-0.5-0.3-0.5-0.6-0.5-0.7c0-1.8,4-2,4-2h1c4,0.3,6.9,2.9,7.7,6.3C485.1,124.2,484.5,126.6,484.5,126.6 M486,124.8
			c0-0.3,0-0.5,0-0.8c0-1-0.1-2-0.4-3c0.4,0.1,0.9,0.5,0.9,2.2C486.5,123.6,486.3,124.2,486,124.8"/>
		<path class="st17" d="M478.6,128.2l-0.1,0.1c-0.7,0.8-1.4,1.7-4,1.7c-0.3,0-0.5,0.2-0.5,0.5c0,0.3,0.2,0.5,0.5,0.5
			c3,0,4-1.1,4.8-2l0.1-0.1c0.2-0.2,0.2-0.5-0.1-0.7C479.1,127.9,478.8,128,478.6,128.2"/>
		<path class="st16" d="M479,123c-0.6,0-1,0.4-1,1s0.4,1,1,1c0.6,0,1-0.4,1-1S479.6,123,479,123 M471,123c-0.6,0-1,0.4-1,1
			s0.4,1,1,1c0.6,0,1-0.4,1-1S471.6,123,471,123"/>
		<path class="st16" d="M438,132h-1v-4c0-1.1-0.3-3.1-3-3v-3c0-0.3,0-0.6-0.1-0.8c-0.3-1.1-1.3-2.2-2.9-2.2h-4.7l2.5-2.1
			c0.1-0.1,0.2-0.2,0.2-0.4V115c0-0.1-0.1-0.3-0.1-0.4l-1.5-1.5c-0.2-0.2-0.5-0.2-0.7,0l-1.1,1.1l-1.1-1.1c-0.2-0.2-0.5-0.2-0.7,0
			l-1.5,1.5c-0.1,0.1-0.1,0.2-0.1,0.4v1.5c0,0.1,0.1,0.3,0.2,0.4l2.5,2.1H420c-1.7,0-3,1.2-3,3v3c-2.7,0-3,2-3,3v4h-1
			c-0.7,0-1,0.3-1,1v1c0,0.7,0.3,1,1,1h25c0.7,0,1-0.3,1-1v-1C439,132.3,438.7,132,438,132 M423,116.3v-1.1l1-1l1.1,1.1
			c0.2,0.2,0.5,0.2,0.7,0l1.1-1.1l1,1v1.1l-2.5,2.1L423,116.3z M420,120h11c0.7,0,1.4,0.4,1.8,1.1c-0.2,0.2-0.7,0.4-1.8,0.4h0
			c-1.5,0-2.1-0.1-2.7-0.2c-0.6-0.1-1.3-0.3-2.8-0.3c-1.7,0-2.2,0.2-2.7,0.3c-0.4,0.1-0.7,0.2-1.8,0.2c-1.2,0-2.1-0.4-2.5-0.7
			C418.8,120.3,419.5,120,420,120 M433,122.1v2.9h-1v-2.6C432.4,122.4,432.7,122.3,433,122.1 M431.5,122.5v2.5h-1v-2.5
			c0.2,0,0.3,0,0.5,0h0C431.2,122.5,431.3,122.5,431.5,122.5 M430,122.5v2.5h-1v-2.6C429.3,122.4,429.6,122.5,430,122.5
			 M428.5,122.3v2.7h-1v-2.9c0.2,0,0.4,0.1,0.6,0.1C428.2,122.3,428.3,122.3,428.5,122.3 M427,122.1v2.9h-1v-3
			C426.4,122,426.7,122,427,122.1 M425.5,122v3h-1v-3C424.8,122,425.1,122,425.5,122 M424,122.1v2.9h-1v-2.7c0,0,0.1,0,0.1,0
			C423.3,122.2,423.6,122.1,424,122.1 M421,122.5v2.5h-1v-2.6l-0.4-0.1C420,122.4,420.4,122.5,421,122.5c0.7,0,1.2,0,1.5-0.1v2.6h-1
			v-2.5H421z M418.2,121.8c0.3,0.2,0.9,0.4,1.3,0.5l0,0v2.7l-1.3,0C418.2,125,418.2,121.9,418.2,121.8 M418,126h15.5
			c1.5,0,2.1,0.3,2.5,1.1c-0.1,0.1-0.4,0.3-0.5,0.4c-0.4,0.5-1.1,0.4-3.5,0.5c-1.5,0.1-2.2-0.2-2.9-0.5c-0.7-0.3-1.5-0.5-3.1-0.5
			c-1.7,0-2.8,0.3-3.7,0.6c-0.8,0.2-1.6,0.4-2.8,0.4c-1.6,0-3.4-0.7-4.1-1.1C415.8,126.2,416.8,126,418,126 M436,128.3v3.7h-1v-3.2
			C435.5,128.7,435.8,128.5,436,128.3 M434.5,128.9v3.1h-1v-3C433.9,129,434.2,128.9,434.5,128.9 M433,129v3h-1v-3
			C432.4,129,432.7,129,433,129 M431.5,129v3h-1v-3.1C430.8,128.9,431.1,129,431.5,129 M430,128.8v3.2h-1v-3.5
			C429.3,128.6,429.6,128.7,430,128.8 M428.9,128.5c0,0-0.1,0-0.1,0c-0.1,0-0.2-0.1-0.3-0.1v3.6h-1v-3.9c0.4,0.1,0.7,0.2,1,0.3v0
			L428.9,128.5z M427,128v4h-1v-4C426.4,128,426.7,128,427,128 M425.5,128v4h-1v-3.9C424.8,128.1,425.1,128,425.5,128 M424,128.2
			v3.8h-1v-3.6C423.3,128.3,423.6,128.2,424,128.2 M422.5,128.5v3.5h-1v-3.2C421.8,128.7,422.2,128.6,422.5,128.5 M421,128.9v3.1h-1
			v-3C420.4,129,420.7,128.9,421,128.9 M419.5,129v3h-1v-3.1C418.8,129,419.2,129,419.5,129 M418,128.8v3.2h-1v-3.4
			C417.3,128.7,417.6,128.8,418,128.8 M415.2,127.9c0.3,0.2,1.3,0.5,1.3,0.5v3.6h-1.3C415.2,132,415.2,128.1,415.2,127.9 M438,134
			h-25v-1h25V134z"/>
		<path class="st17" d="M387,134.5c0-10.5-5.4-13.5-7-13.9v-1.9c0.3-0.4,1-1.6,1-4.2c0-0.1-0.1-0.3-0.1-0.4l-2-2
			c-0.1-0.1-0.2-0.2-0.4-0.1c-0.1,0-0.3,0.1-0.4,0.2l-1.5,1.7l-1.7-1.7c-0.2-0.2-0.5-0.2-0.7,0l-2,2c-0.1,0.1-0.1,0.2-0.1,0.4
			c0,2.5,0.7,3.8,1,4.2v1.9c-1.6,0.4-7,2.7-7,13.9c0,0,0,1,0.7,1.7c0.5,0.6,1.3,0.8,2.3,0.8c1.1,0,2.1-0.8,2.6-1.3
			c0.5,0.7,1.4,1.3,2.4,1.3c1.4,0,2.4-0.6,2.9-1.1c0.4,0.5,1.2,1.1,2.6,1.1c0.8,0,1.9-0.8,2.5-1.3c0.6,0.5,1.7,1.3,2.5,1.3
			c0.8,0,1.3-0.4,1.9-0.7C387,136,387,134.5,387,134.5 M374.5,113.2l1.5,1.5c0.2,0.2,0.4,0.4,0.6,0.4c0.2,0,0.3-0.2,0.6-0.4l1.4-1.5
			l1.5,1.5c0,2.5-0.9,3.4-0.9,3.4c-0.1,0.1-0.1,0.2-0.1,0.4l0,1.6c-1.4-0.6-2.1-0.2-2.5,0.1c-0.9-0.6-1.9-0.3-2.6-0.1v-1.6
			c0-0.1-0.1-0.3-0.1-0.4c0,0-0.8-0.9-0.9-3.4L374.5,113.2z M372.1,122.1c-0.3,0.5-0.6,1.1-0.8,1.9c0,0.1,0,0.3,0.2,0.3
			c0,0,0,0,0.1,0c0.1,0,0.2-0.1,0.2-0.2c0.3-1.2,0.8-1.9,1.4-2.4c0.3-0.2,0.6-0.5,0.6-0.5c0.3-0.4,0.3-0.3,0.3-0.5
			c0.5-0.2,1.3-0.5,1.8-0.3l0,0c0,0-1,0.9-1.2,3.6c0,0.1,0.1,0.3,0.2,0.3c0.1,0,0.3-0.1,0.3-0.2c0.3-2.7,1.1-3.4,1.1-3.4
			c0,0,0,0,0,0c0,0,0.3,0.1,0.3,0.1c0.2,0,0.2-0.1,0.4-0.2c0,0.1,1.1,0.9,1.3,3.4c0,0.1,0.1,0.2,0.3,0.2c0.1,0,0.2-0.1,0.2-0.3
			c-0.2-2.7-1.4-3.5-1.4-3.6c0,0,0.3-0.1,0.3-0.1c0.3,0,0.8,0.1,1.4,0.3c0,0.1,0.3,0.4,0.3,0.4c0.2,0.2,0.3,0.3,0.7,0.6
			c0.7,0.6,1.2,1.5,1.2,2.3c0,0.1,0.1,0.3,0.2,0.3h0c0.1,0,0.2-0.1,0.3-0.2c0-0.5-0.4-1.6-0.7-2c2.6,1.6,4.5,4.8,4.9,10.8
			c-0.5,0.6-1,1-1.4,1h0c-0.8,0-1.9-1-2.3-1.4c0,0,0,0,0,0c0,0,0,0-0.1,0c-0.1,0-0.1,0-0.2,0h0v0c0,0,0,0,0,0c0,0-0.1,0-0.1,0.1
			c0,0,0,0,0,0c0,0-0.9,1.4-2.3,1.4c-1.4,0-2.3-1.4-2.3-1.4c0,0,0,0-0.1-0.1c-0.1-0.1-0.2-0.1-0.3,0c0,0-1.4,1.4-2.8,1.4
			c-1.4,0-2.3-1.4-2.3-1.4c0,0,0,0,0,0c-0.1-0.1-0.2-0.1-0.3,0c0,0-1.6,1.4-2.8,1.4c-0.7,0-1.2-0.4-1.5-0.8
			C367.4,125.7,370.3,123,372.1,122.1 M385.7,135.6c-0.2,0.3-0.6,0.4-1.2,0.4c-0.5,0-1.6-0.8-2.2-1.4c-0.1-0.1-0.2-0.1-0.3-0.1
			s-0.2,0-0.3,0.1c-0.6,0.6-1.7,1.4-2.2,1.4c-1.7,0-2-1.1-2-1.1c0-0.2-0.2-0.3-0.4-0.4c-0.2,0-0.4,0.1-0.5,0.2
			c0,0.1-0.8,1.3-2.6,1.3c-0.8,0-1.5-0.6-2.2-1.4c-0.1-0.1-0.2-0.1-0.4-0.1c-0.1,0-0.3,0.1-0.4,0.2c0,0-1,1.3-2.1,1.3
			c-0.7,0-1.3-0.2-1.6-0.5c-0.4-0.4-0.4-1-0.4-1c0-0.3,0-0.6,0-0.9c0.4,0.3,0.8,0.6,1.5,0.6c1.2,0,2.5-1,3-1.4
			c0.4,0.5,1.2,1.4,2.5,1.4c1.3,0,2.5-0.9,3-1.4c0.4,0.5,1.3,1.4,2.5,1.4c1.3,0,2.2-0.9,2.5-1.4c0.5,0.4,1.6,1.4,2.5,1.4h0
			c0.5,0,1.1-0.3,1.5-0.8c0,0.4,0,0.7,0,1.1C386,134.5,386,135.2,385.7,135.6"/>
		<path class="st17" d="M336.5,118.8c-0.1-0.3-0.3-0.4-0.6-0.4c0,0-1.4,0.3-3.4,0.8c-0.5-1.6-2.3-6.1-7.6-6.1c-0.5,0-0.9,0-1.4,0.1
			c-6.3,0.9-6.4,5.9-6.4,7.7c0,0.5-0.1,1.7,0,2l-2.6,0.8c-0.3,0.1-0.4,0.3-0.4,0.6c0.1,0.2,0.3,0.4,0.5,0.4c0,0,0.1,0,0.1,0l2.4-0.7
			v10c0,0.8,1,1,1,1h15.5c0.1,0,0.3-0.1,0.4-0.2c0.1-0.1,0.1-0.3,0.1-0.4c-0.4-2.6-2.2-2.9-3.7-3.1l-0.2,0h0c-1.4-0.2-2.3-0.4-2.6-2
			c0,0,0-0.1,0-0.1c0-0.1-0.1-0.3-0.1-0.4c1.4-0.6,4.1-2.6,4.1-5.4V121c0-0.1,0-0.3,0-0.4l4.6-1.1
			C336.4,119.4,336.5,119.1,336.5,118.8 M319.1,117.1c0.9-1.6,2.4-2.6,4.5-2.9c0.4-0.1,0.9-0.1,1.3-0.1c2.3,0,4.2,1,5.5,3
			c0.3,0.4,0-0.2,0.2,0.2c-5.2,1.4-11,2.8-12.4,3.1C318.1,119.2,318.3,118.6,319.1,117.1 M327.2,121.6c0,1,0,4.9-1.3,7.3
			c-1.3,2.5-2.4,4.1-3.4,5.1h-1c0.7-0.9,2-2.7,3.2-4.8c1.6-2.8,1.8-7.1,1.9-7.4L327.2,121.6z M324,129.1c-1.3,2.3-2.7,4-3.4,4.8
			c0,0,0,0,0,0h-1.2c1.2-1.4,3.1-4.1,3.9-5.4c1.3-2,1.8-5.5,1.8-6.5l0.5-0.1C325.7,122.7,325.4,126.6,324,129.1 M322.8,128.1
			c-0.8,1.4-3.5,4.6-4.6,5.9v-1.5c0.1-0.1,0.9-0.8,1.1-1c0.9-1.1,2.3-2.8,2.9-4c1-1.9,1.3-4.4,1.4-5.1l0.7-0.2
			C324.2,123.3,323.9,126.2,322.8,128.1 M321.2,127.2c-0.6,1.3-3,4.1-3.1,4.1c0,0,0-1.3,0-1.3c2.4-2.8,3.6-6.5,3.6-7.2l0.9-0.2
			C322.6,123.4,322,125.4,321.2,127.2 M318.2,128.7v-1.2c0.7-0.8,1.8-3.6,2-4.3l0.6-0.1C320.7,123.9,320,126.4,318.2,128.7
			 M318.2,125.8c0,0,0-2.1,0-2.1l1-0.3C319,124.2,318.5,125.2,318.2,125.8 M330,132.3C330,132.3,330,132.3,330,132.3l0.2,0
			c1.3,0.2,2.3,0.3,2.7,1.6h-9c0.9-1.1,1.5-2.2,2.6-4.4c0,0.2,0,0,0,0.1C327,131.9,328.8,132.1,330,132.3 M330.5,123.5
			c0,2.4-2.4,4-3.4,4.4c0.9-2.5,0.9-5.7,0.9-6.5l2.5-0.6L330.5,123.5z M318.2,122.8c0-0.2,0-1,0-1.3c1.3-0.3,7.5-1.9,12.8-3.4
			c0.1,0.3,0.5,1.2,0.6,1.4L318.2,122.8z"/>
		<path class="st47" d="M649.8,220c0-5.2-2.4-6.3-4.4-6.3c0,0,0,0,0,0c-3.1-8-10.9-13.7-20-13.7c-0.1,0-0.3,0-0.4,0c0,0,0,0,0,0
			c-0.1,0-0.1,0-0.2,0c-0.2,0-0.4,0-0.5,0c-8.6,0.3-16.2,5.7-19.3,13.7c-0.2,0-0.3,0-0.5,0c-2,0-4.4,1.1-4.4,6.3
			c0,2.1,1,4.2,3.2,6.5c0.3,0.3,0.5,0.5,0.8,0.8c2,10.1,9.4,15.7,20.9,15.7c0.1,0,0.3,0,0.4,0c0,0,0.1,0,0.1,0c0.4,0,0.8,0,1.2,0
			c0.1,0,0.3,0,0.4,0c10.7-0.5,17.6-6.4,19.4-16.2c0.1-0.1,0.1-0.1,0.2-0.2C648.2,225,649.8,222.1,649.8,220 M644,226.6
			c-1.7,8.7-7.7,13.8-17.1,14.4c-0.2,0-0.4,0-0.6,0c-0.3,0-0.7,0-1,0c-16.9-0.1-19.4-12.3-19.4-19.5c0-8.4,5.4-15.6,12.9-18.4
			c-1.2,0.9-2.1,2-2.1,3.7c0,0.9,0.3,2.1,2,3.1c1.4,0.8,3.4,1.2,5.3,1.2c1.9,0,3.8-0.4,5-1c1.2-0.7,1.5-1.6,1.5-2.2
			c0-0.6-0.3-1.2-0.9-1.6c-1.7-1.2-5.5-0.8-7.2-0.3l0.6,1.9c2-0.6,5.2-0.5,5.6,0c0,0.1-0.2,0.3-0.5,0.5c-1.7,1-6.1,1.1-8.3-0.1
			c-1-0.6-1-1.2-1-1.4c0-3.4,7.8-3.9,7.9-3.9h1.9c7.8,0.6,13.4,5.7,15.1,12.3C645.1,221.9,644,226.6,644,226.6 M602,220
			c0-4.4,1.8-4.4,2.4-4.4c0.1,0,0.2,0,0.3,0c-0.5,1.9-0.8,3.8-0.8,5.8c0,1.1,0.1,2.1,0.2,3.1C602.7,222.9,602,221.4,602,220
			 M646.1,215.7c0.8,0.2,1.8,1,1.8,4.3c0,0.8-0.4,1.9-1,3c0-0.5,0.1-1,0.1-1.5C646.9,219.5,646.6,217.6,646.1,215.7"/>
		<path class="st47" d="M624.4,235.2c-0.5,0-1-0.4-1-1c0-0.5,0.4-1,1-1c5,0,6.5-1.7,7.8-3.3l0.2-0.3c0.4-0.4,1-0.5,1.4-0.1
			c0.4,0.4,0.5,1,0.1,1.4l-0.2,0.2C632.2,233,630.4,235.2,624.4,235.2"/>
		<path class="st45" d="M633.2,219.5c-1.1,0-2,0.9-2,2c0,1.1,0.9,2,2,2c1.1,0,2-0.9,2-2C635.2,220.4,634.3,219.5,633.2,219.5
			 M617.6,219.5c-1.1,0-2,0.9-2,2c0,1.1,0.9,2,2,2c1.1,0,2-0.9,2-2C619.5,220.4,618.7,219.5,617.6,219.5"/>
		<path class="st45" d="M547.9,237.2h-1v-7.8c0-2.1-0.7-6-5.9-5.8v-5.9c0-0.6-0.1-1.1-0.2-1.6c-0.6-2.1-2.6-4.2-5.6-4.2H526l5-4.1
			c0.2-0.2,0.4-0.5,0.4-0.8v-2.9c0-0.3-0.1-0.5-0.3-0.7l-2.9-2.9c-0.4-0.4-1-0.4-1.4,0l-2.2,2.2l-2.2-2.2c-0.4-0.4-1-0.4-1.4,0
			l-2.9,2.9c-0.2,0.2-0.3,0.4-0.3,0.7v2.9c0,0.3,0.1,0.6,0.4,0.8l5,4.1h-9.2c-3.2,0-4.9,3.8-4.9,5.9v5.9c-5.3,0-5.9,4.8-5.9,6.8v6.8
			h-1c-1.4,0-2,0.6-2,2v2c0,1.4,0.6,2,2,2h46c1.4,0,2-0.6,2-2v-2C549.9,237.8,549.3,237.2,547.9,237.2 M519.6,206.4v-2.1l2-2
			l2.2,2.2c0.4,0.4,1,0.4,1.4,0l2.2-2.2l2,2v2.1l-4.9,4.1L519.6,206.4z M513.7,213.7h21.5c1.3,0,2.7,0.8,3.4,2.1
			c-0.5,0.4-1.4,0.8-3.4,0.8h0c-3,0-4.1-0.2-5.3-0.5c-1.2-0.2-2.4-0.5-5.4-0.5c-3.3,0-4.3,0.3-5.2,0.6c-0.8,0.2-1.4,0.4-3.6,0.4
			c-2.4,0-3.6-0.8-4.3-1.4C511.8,214.3,512.6,213.7,513.7,213.7 M539.1,217.8v5.6h-2v-5C538,218.3,538.6,218.1,539.1,217.8
			 M536.2,218.5v4.9h-2v-4.9c0.3,0,0.6,0,1,0h0C535.6,218.6,535.9,218.6,536.2,218.5 M533.3,218.5v4.9h-2v-5.1
			C531.8,218.4,532.5,218.5,533.3,218.5 M530.3,218.2v5.2h-2v-5.6c0.4,0.1,0.8,0.1,1.1,0.2C529.7,218.1,530,218.2,530.3,218.2
			 M527.4,217.7v5.7h-2v-5.9C526.2,217.6,526.8,217.7,527.4,217.7 M524.5,217.6v5.9h-2v-5.8C523,217.6,523.7,217.6,524.5,217.6
			 M521.5,217.7v5.7h-2v-5.3c0.1,0,0.1,0,0.2-0.1C520.2,218,520.7,217.8,521.5,217.7 M515.6,218.6v4.9h-2v-5.1l-0.1,0
			C514.2,218.5,514.9,218.6,515.6,218.6c1.4,0,2.3-0.1,2.9-0.2v5.1h-2v-4.9H515.6z M510.8,217.6c0-0.1,0-0.2,0-0.3
			c0.5,0.3,1.1,0.7,1.9,0.9v5.3h-2V217.6z M509.8,225.4h30.3c2.9,0,4.2,0.6,4.6,1.9c-0.2,0.2-0.4,0.4-0.5,0.6c-0.8,1-1.1,1.4-7,1.4
			c-2.9,0-4.3-0.5-5.7-0.9c-1.5-0.5-3-1-6-1c-3.3,0-5.4,0.6-7.3,1.1c-1.7,0.4-3.2,0.9-5.4,0.9c-3.1,0-5.9-1.3-7.3-2.1
			C506.1,225.9,507.4,225.4,509.8,225.4 M545,230v7.2h-2v-6.2C544,230.7,544.5,230.4,545,230 M542.1,231.1v6.1h-2v-5.9
			C540.9,231.2,541.5,231.2,542.1,231.1 M539.1,231.3v5.9h-2v-5.9C537.9,231.3,538.5,231.3,539.1,231.3 M536.2,231.3v5.9h-2v-6.1
			C534.8,231.2,535.4,231.2,536.2,231.3 M533.3,230.9v6.2h-2v-6.8C531.9,230.6,532.5,230.8,533.3,230.9 M531,230.3
			c-0.1,0-0.1,0-0.2-0.1c-0.2-0.1-0.3-0.1-0.5-0.2v7.1h-2v-7.6c0.7,0.1,1.4,0.3,2,0.5v0L531,230.3z M527.4,229.4v7.7h-2v-7.8
			C526.2,229.3,526.8,229.4,527.4,229.4 M524.5,229.4v7.8h-2v-7.6C523.1,229.4,523.7,229.4,524.5,229.4 M521.5,229.7v7.5h-2v-7.1
			C520.2,230,520.8,229.8,521.5,229.7 M518.6,230.4v6.8h-2v-6.3C517.3,230.7,517.9,230.5,518.6,230.4 M515.6,231v6.1h-2v-5.9
			C514.4,231.2,515,231.1,515.6,231 M512.7,231.3v5.9h-2v-6C511.4,231.2,512,231.3,512.7,231.3 M509.8,231v6.2h-2v-6.7
			C508.4,230.6,509.1,230.8,509.8,231 M504.9,230.3c0-0.4,0-0.8,0-1.1c0.7,0.4,1.5,0.8,2.5,1.1l-0.6-0.2v7.1h-2V230.3z M547.9,241.1
			h-46v-2h2c0.1,0,0.1,0,0.2,0c0.1,0,0.1,0,0.2,0h41.3c0.1,0,0.1,0,0.2,0c0.1,0,0.1,0,0.2,0h2V241.1z"/>
		<path class="st47" d="M442,245c0-22.4-10.8-26.9-14-27.8v-3.8c0.6-0.9,2-3.3,2-8.4c0-0.3-0.1-0.5-0.3-0.7l-4-4
			c-0.2-0.2-0.5-0.3-0.7-0.3c-0.3,0-0.5,0.1-0.7,0.3l-3.1,3.4l-3.5-3.5c-0.4-0.4-1-0.4-1.4,0l-4,4c-0.2,0.2-0.3,0.4-0.3,0.7
			c0,5.1,1.4,7.5,2,8.4v3.8c-3.2,0.9-14,5.5-14,27.8c0,0.1-0.1,1.9,1.3,3.4c1.1,1.1,2.6,1.7,4.7,1.7c2.2,0,4.1-1.6,5.1-2.6
			c1,1.3,2.8,2.6,4.9,2.6c2.9,0,4.8-1.2,5.8-2.2c0.8,1,2.3,2.2,5.2,2.2c1.6,0,3.8-1.7,5-2.7c1.2,1,3.4,2.7,5,2.7
			c1.6,0,2.9-0.5,3.8-1.5C442.2,247,442,245,442,245 M417,202.4l3,3.1c0.5,0.5,0.8,0.9,1.2,0.9c0.5,0,0.7-0.4,1.1-0.8l2.7-3.1l3,3
			c-0.1,5.1-1.7,6.9-1.7,6.9c-0.2,0.2-0.3,0.4-0.3,0.7l0.1,3.3c-2.8-1.2-4.2-0.3-4.9,0.1c-1.8-1.3-3.9-0.7-5.2-0.2V213
			c0-0.3-0.1-0.5-0.3-0.7c0,0-1.6-1.8-1.7-6.9L417,202.4z M412.1,220.1c-0.7,1-1.3,2.2-1.6,3.7c-0.1,0.3,0.1,0.5,0.4,0.6
			c0,0,0.1,0,0.1,0c0.2,0,0.4-0.2,0.5-0.4c0.6-2.3,1.6-3.8,2.7-4.8c0.5-0.3,1.1-1,1.1-1c0.5-0.8,0.6-0.7,0.7-1c1-0.5,2.5-1,3.5-0.6
			c0,0,0,0,0,0c0,0.1-1.9,1.8-2.3,7.1c0,0.3,0.1,0.5,0.4,0.6c0.3,0,0.6-0.1,0.6-0.4c0.5-5.3,2.2-6.8,2.2-6.8c0,0,0,0,0,0
			c0.1,0.1,0.5,0.3,0.6,0.3c0.4,0,0.5-0.2,0.9-0.3c-0.1,0.2,2.2,1.8,2.6,6.9c0,0.3,0.3,0.5,0.5,0.5c0.3,0,0.5-0.3,0.5-0.5
			c-0.5-5.5-2.7-7.1-2.8-7.2c0,0,0.6-0.2,0.6-0.2c0.6-0.1,1.6,0.1,2.8,0.6c-0.1,0.2,0.6,0.8,0.6,0.8c0.4,0.5,0.6,0.6,1.4,1.2
			c1.4,1.2,2.4,3.1,2.4,4.7c0,0.3,0.2,0.5,0.5,0.5h0c0.3,0,0.5-0.2,0.5-0.5c0-1-0.8-3.2-1.4-4c5.2,3.1,9.1,9.6,9.8,21.6
			c-1,1.2-2.1,1.9-2.9,1.9h0c-1.6,0-3.9-2-4.6-2.8c0,0,0,0-0.1-0.1c0,0-0.1,0-0.1-0.1c-0.1,0-0.2-0.1-0.3,0h0c0,0,0,0,0,0
			c0,0,0,0-0.1,0c-0.1,0-0.2,0.1-0.2,0.2c0,0,0,0,0,0c-0.1,0.1-1.9,2.8-4.6,2.8c-2.8,0-4.6-2.7-4.6-2.8c0-0.1-0.1-0.1-0.1-0.1
			c-0.2-0.1-0.5-0.1-0.7,0.1c0,0-2.8,2.8-5.6,2.8c-2.8,0-4.6-2.7-4.6-2.8c0,0-0.1-0.1-0.1-0.1c-0.2-0.2-0.5-0.2-0.7,0
			c0,0-3.1,2.9-5.7,2.9c-1.4,0-2.3-0.9-2.9-1.6C402.8,227.5,408.5,222.1,412.1,220.1 M439.3,247.2c-0.5,0.5-1.3,0.8-2.3,0.8
			c-1,0-3.1-1.6-4.3-2.7c-0.2-0.2-0.4-0.3-0.7-0.3c-0.2,0-0.5,0.1-0.7,0.3c-1.2,1.1-3.4,2.7-4.3,2.7c-3.3,0-4-2.2-4-2.3
			c-0.1-0.4-0.4-0.7-0.8-0.7c-0.4-0.1-0.8,0.1-1,0.5c-0.1,0.1-1.6,2.5-5.1,2.5c-1.6,0-3.1-1.2-4.3-2.7c-0.2-0.2-0.5-0.3-0.8-0.3
			c-0.3,0-0.5,0.2-0.7,0.4c0,0-2,2.6-4.2,2.6c-1.5,0-2.6-0.4-3.2-1c-0.8-0.8-0.8-1.9-0.8-2c0-0.6,0-1.2,0-1.8c0.7,0.7,1.7,1.2,3,1.2
			c2.4,0,4.9-1.9,5.9-2.8c0.7,0.9,2.5,2.8,5.1,2.8c2.6,0,5-1.9,5.9-2.7c0.7,0.9,2.5,2.7,5.1,2.7c2.5,0,4.3-1.8,5.1-2.7
			c0.9,0.9,3.1,2.7,4.9,2.7h0c1.1,0,2.1-0.7,2.9-1.5c0,0.7,0,1.4,0,2.2C440,245.1,440.1,246.4,439.3,247.2"/>
		<path class="st47" d="M345,212.3c-0.1-0.5-0.6-0.9-1.2-0.8c0,0-2.6,0.5-6.7,1.5c-0.9-3.2-4.7-12.8-15.4-12.8
			c-0.9,0-1.9,0.1-2.9,0.2c-12.5,1.8-12.6,13.6-12.4,17.2c0.1,1.1,0.2,1.8,0.3,2.4l-6,1.4c-0.5,0.1-0.9,0.7-0.7,1.2
			c0.1,0.5,0.5,0.8,1,0.8c0.1,0,0.2,0,0.2,0l5.8-1.3V243c0,0.6,0.4,1,1,1h31c0.3,0,0.6-0.1,0.8-0.4c0.2-0.2,0.3-0.5,0.2-0.8
			c-0.8-5.2-4.5-5.7-7.4-6.1l-0.4,0c0,0,0,0,0,0c-2.7-0.4-4.6-0.8-5.2-3.9c0-0.1,0-0.1,0-0.1c-0.1-0.1-0.2-0.5-0.1-0.9
			c2.9-1.2,8.2-5.1,8.2-10.8v-5c0-0.1,0-0.3-0.1-0.4l9.3-2.2C344.8,213.3,345.1,212.8,345,212.3 M310.2,208.3c1.8-3.2,4.8-5.2,9-5.8
			c0.9-0.1,1.8-0.2,2.6-0.2c4.7,0,8.4,2,11,6c0.6,0.9,1.1,1.8,1.4,2.6c-10.4,2.9-22.9,5.9-25.7,6.5
			C308.3,214.9,308.5,211.3,310.2,208.3 M326.5,217.6c0,2.1-0.1,9.4-2.5,14.2c-2.5,4.9-4.5,8.1-6.4,10.2h-3c1.4-1.8,3.9-5,6.4-9.3
			c3.2-5.6,3.5-14.1,3.6-14.7L326.5,217.6z M320.1,232.2c-2.7,4.6-5.4,8-6.7,9.7c0,0,0,0.1-0.1,0.1h-3.1c2.4-2.9,6.7-8.7,8.3-11.2
			c2.5-4.1,3-9.9,3.1-12l2-0.5C323.4,219.9,322.9,227.4,320.1,232.2 M317.6,230.2c-1.7,2.7-6.4,9-8.6,11.6V238
			c0.2-0.3,0.5-0.6,0.8-1c1.8-2.2,4.6-5.6,5.8-8c2-3.8,2.6-8.1,2.8-9.5l2-0.5C320.4,221.2,319.8,226.6,317.6,230.2 M314.8,228.5
			c-1.2,2.3-3.9,5.6-5.7,7.8c0,0,0,0,0,0.1v-3.5c0,0,0,0,0,0c4.7-5.5,5.4-11,5.5-12.4l2.9-0.7C317.2,221.3,316.6,225.1,314.8,228.5
			 M309,231.2v-3.4c1.4-1.6,2.1-5.3,2.4-6.8l2.1-0.5C313.3,222.2,312.6,226.7,309,231.2 M309,225.9V222c0-0.1,0-0.2-0.1-0.3l1.4-0.3
			C310,222.8,309.6,224.6,309,225.9 M332,238.7C332,238.7,332,238.7,332,238.7l0.4,0c2.5,0.3,4.6,0.6,5.4,3.3h-18.9
			c1.8-2.1,3.6-5.2,5.9-9.7c0,0.4,0.1,0.8,0.2,1C326.1,237.9,329.6,238.4,332,238.7 M333,221c0,4.9-5.1,8.2-7.2,9
			c1.7-5,1.7-11.1,1.7-12.6l5.5-1.3V221z M308.8,219.7c-0.1-0.3-0.1-0.8-0.2-1.3c2.5-0.6,15.4-3.7,26-6.6c0.3,0.7,0.5,1.3,0.6,1.7
			L308.8,219.7z"/>
		<path class="st47" d="M343.9,251c0-0.1,0-0.3-0.1-0.4c0,0,0,0,0-0.1c-0.1-0.1-0.1-0.2-0.2-0.3c0,0-0.1,0-0.1,0c0,0,0,0,0,0
			c0,0,0,0-0.1,0c-0.1-0.1-0.2-0.1-0.4-0.1c0,0,0,0-0.1,0c-0.2,0-0.3,0-0.4,0.1c0,0,0,0,0,0l-42,22.9c-0.3,0.2-0.5,0.5-0.5,0.9
			c0,0.4,0.3,0.7,0.6,0.8l11,3.7l3.7,12.9c0.1,0.4,0.4,0.6,0.8,0.7c0,0,0.1,0,0.1,0c0.2,0,0.4-0.1,0.5-0.2l0,0l11.1-7.4l11,3.7
			c0.3,0.1,0.6,0.1,0.8-0.1c0.2-0.2,0.4-0.4,0.4-0.7L343.9,251C344,251,343.9,251,343.9,251 M303.3,273.7l32.5-17.7l-23.6,20.7
			L303.3,273.7z M313.5,278l24.4-21.3L321.2,281c0,0,0,0,0,0c0,0,0,0,0,0l-4.6,7.7L313.5,278z M319.3,287.9l3.2-5.3l3.2,1.1
			L319.3,287.9z M338.4,286l-14.9-5l18.2-26.4L338.4,286z"/>
		<path class="st47" d="M425.9,256c-0.4-2.5-2.1-6-6.9-6s-6.6,3.5-6.9,6H400v32h38v-32H425.9z M419,252c3.6,0,4.6,2.5,4.9,4h-9.8
			C414.4,254.5,415.4,252,419,252 M436,258v14h-12v-2v-2h-2h-6h-2v2v2h-12v-14H436z M416,272v-2h6v4h-6V272z M402,286v-12h12v2h2h6
			h2v-2h12v12H402z"/>
		<path class="st47" d="M520,252c7.2,0,18,5.3,18,20c0,13.4-15.4,25.9-18,26c-2.6-0.1-18-12.6-18-26C502,257.3,512.8,252,520,252
			 M520,250c-8,0-20,6-20,22c0,14,16,28,20,28s20-14,20-28C540,256,528,250,520,250"/>
		<path class="st47" d="M512.9,283.9L512.9,283.9c-2.6,0-5.6-1.7-7.5-4.2c-3.1-4-3.7-10-1.3-12.4c0.7-0.7,1.6-1,2.6-1
			c2.6,0,5.8,2.2,8.1,5.4c2.8,4,3.4,9.2,1.3,11.1C515.3,283.5,514.2,283.9,512.9,283.9 M506.7,268.3c-0.5,0-0.9,0.1-1.2,0.4
			c-1.5,1.5-1.1,6.4,1.5,9.8c1.5,2,4,3.4,5.9,3.4h0c0.8,0,1.4-0.2,1.9-0.6c1.1-0.9,0.9-4.9-1.6-8.4
			C511.3,270.2,508.6,268.3,506.7,268.3"/>
		<path class="st47" d="M527.1,283.9c-1.2,0-2.3-0.4-3.2-1.1c-2.1-1.9-1.5-7,1.3-11.1c2.3-3.2,5.5-5.4,8.1-5.4c1,0,1.9,0.4,2.6,1
			c2.4,2.4,1.8,8.4-1.3,12.4C532.7,282.2,529.7,283.9,527.1,283.9 M533.3,268.3c-1.9,0-4.6,1.9-6.4,4.6c-2.5,3.5-2.7,7.5-1.6,8.4
			c1.7,1.5,5.7,0,7.8-2.7c2.6-3.4,3-8.3,1.5-9.8C534.2,268.4,533.8,268.3,533.3,268.3"/>
		<polygon class="st56" points="500,50 504,54 508,50 		"/>
		<polygon class="st41" points="550,50 554,54 558,50 		"/>
		<path class="st47" d="M625,162c3.6,0,9,2.7,9,10c0,6.7-7.7,12.9-9,13c-1.3-0.1-9-6.3-9-13C616,164.7,621.4,162,625,162 M625,161
			c-4,0-10,3-10,11c0,7,8,14,10,14s10-7,10-14C635,164,629,161,625,161"/>
		<path class="st47" d="M621.5,177.9L621.5,177.9c-1.3,0-2.8-0.8-3.8-2.1c-1.5-2-1.8-5-0.6-6.2c0.3-0.3,0.8-0.5,1.3-0.5
			c1.3,0,2.9,1.1,4,2.7c1.4,2,1.7,4.6,0.6,5.5C622.6,177.7,622.1,177.9,621.5,177.9 M618.4,170.1c-0.3,0-0.5,0.1-0.6,0.2
			c-0.8,0.8-0.6,3.2,0.7,4.9c0.8,1,2,1.7,3,1.7c0.4,0,0.7-0.1,0.9-0.3c0.5-0.5,0.4-2.4-0.8-4.2C620.7,171.1,619.3,170.1,618.4,170.1
			"/>
		<path class="st47" d="M628.6,177.9c-0.6,0-1.2-0.2-1.6-0.6c-1.1-0.9-0.8-3.5,0.6-5.5c1.1-1.6,2.8-2.7,4-2.7c0.5,0,1,0.2,1.3,0.5
			c1.2,1.2,0.9,4.2-0.6,6.2C631.4,177.1,629.9,177.9,628.6,177.9 M631.6,170.1c-0.9,0-2.3,1-3.2,2.3c-1.2,1.8-1.3,3.7-0.8,4.2
			c0.9,0.8,2.9,0,3.9-1.4c1.3-1.7,1.5-4.1,0.7-4.9C632.1,170.2,631.9,170.1,631.6,170.1"/>
		<path class="st47" d="M579,166c-0.2-1.2-1-3-3.5-3s-3.3,1.8-3.5,3h-6v16h19v-16H579z M575.5,164c1.8,0,2.3,1.3,2.4,2h-4.9
			C573.2,165.3,573.7,164,575.5,164 M584,167v7h-6v-1v-1h-1h-3h-1v1v1h-6v-7H584z M574,174v-1h3v2h-3V174z M567,181v-6h6v1h1h3h1v-1
			h6v6H567z"/>
		<path class="st47" d="M535,163.5c0-0.1,0-0.1,0-0.2c0,0,0,0,0,0c0-0.1-0.1-0.1-0.1-0.2c0,0,0,0,0,0c0,0,0,0,0,0c0,0,0,0,0,0
			c-0.1,0-0.1-0.1-0.2-0.1c0,0,0,0,0,0c-0.1,0-0.2,0-0.2,0.1c0,0,0,0,0,0l-22,12c-0.2,0.1-0.3,0.3-0.3,0.5c0,0.2,0.2,0.4,0.3,0.4
			l5.8,1.9l1.9,6.7c0.1,0.2,0.2,0.3,0.4,0.4c0,0,0,0,0.1,0c0.1,0,0.2,0,0.3-0.1l0,0l5.8-3.9l5.8,1.9c0.1,0,0.3,0,0.4-0.1
			c0.1-0.1,0.2-0.2,0.2-0.4L535,163.5C535,163.5,535,163.5,535,163.5 M513.8,175.4l17-9.3l-12.4,10.8L513.8,175.4z M519.1,177.7
			l12.8-11.2l-8.7,12.7c0,0,0,0,0,0c0,0,0,0,0,0l-2.4,4L519.1,177.7z M522.1,182.9l1.6-2.8l1.7,0.5L522.1,182.9z M532.1,181.8
			l-7.8-2.6l9.5-13.8L532.1,181.8z"/>
		<path class="st47" d="M485.3,170C485.2,170,485.2,170,485.3,170c-1.6-4.1-5.6-7-10.3-7c-0.1,0-0.2,0-0.2,0c0,0,0,0,0,0
			c0,0-0.1,0-0.1,0c-0.1,0-0.2,0-0.3,0c-4.4,0.2-8.3,2.9-9.9,7c-0.1,0-0.2,0-0.3,0c-1,0-2.3,0.6-2.3,3.2c0,1.1,0.5,2.2,1.6,3.3
			c0.1,0.1,0.3,0.3,0.4,0.4c1,5.2,4.8,8,10.7,8c0.1,0,0.1,0,0.2,0c0,0,0,0,0.1,0c0.2,0,0.4,0,0.6,0c0.1,0,0.1,0,0.2,0
			c5.5-0.3,9-3.3,9.9-8.3c0,0,0.1-0.1,0.1-0.1c0.8-0.8,1.6-2.3,1.6-3.4C487.5,170.6,486.3,170,485.3,170 M464.1,175.6
			c-0.7-0.9-1.1-1.6-1.1-2.3c0-2.2,0.9-2.2,1.3-2.2c0.1,0,0.1,0,0.2,0c-0.3,0.9-0.4,1.9-0.4,3C464,174.5,464,175.1,464.1,175.6
			 M484.5,176.6c-0.9,4.5-4,7.1-8.7,7.4c-0.1,0-0.2,0-0.3,0c-0.2,0-0.4,0-0.5,0c-8.6,0-9.9-6.3-9.9-10c0-4.3,2.8-8,6.6-9.4
			c-0.6,0.4-1.1,1-1.1,1.9c0,0.4,0.2,1.1,1,1.6c0.7,0.4,1.7,0.6,2.7,0.6c1,0,2-0.2,2.5-0.5c0.6-0.4,0.8-0.8,0.8-1.1
			c0-0.3-0.2-0.6-0.4-0.8c-0.9-0.6-2.8-0.4-3.7-0.1l0.3,0.9c1-0.3,2.7-0.3,2.8,0c0,0.1-0.1,0.2-0.3,0.3c-0.9,0.5-3.1,0.6-4.2-0.1
			c-0.5-0.3-0.5-0.6-0.5-0.7c0-1.8,4-2,4-2h1c4,0.3,6.9,2.9,7.7,6.3C485.1,174.2,484.5,176.6,484.5,176.6 M486,174.8
			c0-0.3,0-0.5,0-0.8c0-1-0.1-2-0.4-3c0.4,0.1,0.9,0.5,0.9,2.2C486.5,173.6,486.3,174.2,486,174.8"/>
		<path class="st47" d="M478.6,178.2l-0.1,0.1c-0.7,0.8-1.4,1.7-4,1.7c-0.3,0-0.5,0.2-0.5,0.5c0,0.3,0.2,0.5,0.5,0.5
			c3,0,4-1.1,4.8-2l0.1-0.1c0.2-0.2,0.2-0.5-0.1-0.7C479.1,177.9,478.8,178,478.6,178.2"/>
		<path class="st45" d="M479,173c-0.6,0-1,0.4-1,1s0.4,1,1,1c0.6,0,1-0.4,1-1S479.6,173,479,173 M471,173c-0.6,0-1,0.4-1,1
			s0.4,1,1,1c0.6,0,1-0.4,1-1S471.6,173,471,173"/>
		<path class="st45" d="M438,182h-1v-4c0-1.1-0.3-3.1-3-3v-3c0-0.3,0-0.6-0.1-0.8c-0.3-1.1-1.3-2.2-2.9-2.2h-4.7l2.5-2.1
			c0.1-0.1,0.2-0.2,0.2-0.4V165c0-0.1-0.1-0.3-0.1-0.4l-1.5-1.5c-0.2-0.2-0.5-0.2-0.7,0l-1.1,1.1l-1.1-1.1c-0.2-0.2-0.5-0.2-0.7,0
			l-1.5,1.5c-0.1,0.1-0.1,0.2-0.1,0.4v1.5c0,0.1,0.1,0.3,0.2,0.4l2.5,2.1H420c-1.7,0-3,1.2-3,3v3c-2.7,0-3,2-3,3v4h-1
			c-0.7,0-1,0.3-1,1v1c0,0.7,0.3,1,1,1h25c0.7,0,1-0.3,1-1v-1C439,182.3,438.7,182,438,182 M423,166.3v-1.1l1-1l1.1,1.1
			c0.2,0.2,0.5,0.2,0.7,0l1.1-1.1l1,1v1.1l-2.5,2.1L423,166.3z M420,170h11c0.7,0,1.4,0.4,1.8,1.1c-0.2,0.2-0.7,0.4-1.8,0.4h0
			c-1.5,0-2.1-0.1-2.7-0.2c-0.6-0.1-1.3-0.3-2.8-0.3c-1.7,0-2.2,0.2-2.7,0.3c-0.4,0.1-0.7,0.2-1.8,0.2c-1.2,0-2.1-0.4-2.5-0.7
			C418.8,170.3,419.5,170,420,170 M433,172.1v2.9h-1v-2.6C432.4,172.4,432.7,172.3,433,172.1 M431.5,172.5v2.5h-1v-2.5
			c0.2,0,0.3,0,0.5,0h0C431.2,172.5,431.3,172.5,431.5,172.5 M430,172.5v2.5h-1v-2.6C429.3,172.4,429.6,172.5,430,172.5
			 M428.5,172.3v2.7h-1v-2.9c0.2,0,0.4,0.1,0.6,0.1C428.2,172.3,428.3,172.3,428.5,172.3 M427,172.1v2.9h-1v-3
			C426.4,172,426.7,172,427,172.1 M425.5,172v3h-1v-3C424.8,172,425.1,172,425.5,172 M424,172.1v2.9h-1v-2.7c0,0,0.1,0,0.1,0
			C423.3,172.2,423.6,172.1,424,172.1 M421,172.5v2.5h-1v-2.6l-0.4-0.1C420,172.4,420.4,172.5,421,172.5c0.7,0,1.2,0,1.5-0.1v2.6h-1
			v-2.5H421z M418.2,171.8c0.3,0.2,0.9,0.4,1.3,0.5l0,0v2.7l-1.3,0C418.2,175,418.2,171.9,418.2,171.8 M418,176h15.5
			c1.5,0,2.1,0.3,2.5,1.1c-0.1,0.1-0.4,0.3-0.5,0.4c-0.4,0.5-1.1,0.4-3.5,0.5c-1.5,0.1-2.2-0.2-2.9-0.5c-0.7-0.3-1.5-0.5-3.1-0.5
			c-1.7,0-2.8,0.3-3.7,0.6c-0.8,0.2-1.6,0.4-2.8,0.4c-1.6,0-3.4-0.7-4.1-1.1C415.8,176.2,416.8,176,418,176 M436,178.3v3.7h-1v-3.2
			C435.5,178.7,435.8,178.5,436,178.3 M434.5,178.9v3.1h-1v-3C433.9,179,434.2,178.9,434.5,178.9 M433,179v3h-1v-3
			C432.4,179,432.7,179,433,179 M431.5,179v3h-1v-3.1C430.8,178.9,431.1,179,431.5,179 M430,178.8v3.2h-1v-3.5
			C429.3,178.6,429.6,178.7,430,178.8 M428.9,178.5c0,0-0.1,0-0.1,0c-0.1,0-0.2-0.1-0.3-0.1v3.6h-1v-3.9c0.4,0.1,0.7,0.2,1,0.3v0
			L428.9,178.5z M427,178v4h-1v-4C426.4,178,426.7,178,427,178 M425.5,178v4h-1v-3.9C424.8,178.1,425.1,178,425.5,178 M424,178.2
			v3.8h-1v-3.6C423.3,178.3,423.6,178.2,424,178.2 M422.5,178.5v3.5h-1v-3.2C421.8,178.7,422.2,178.6,422.5,178.5 M421,178.9v3.1h-1
			v-3C420.4,179,420.7,178.9,421,178.9 M419.5,179v3h-1v-3.1C418.8,179,419.2,179,419.5,179 M418,178.8v3.2h-1v-3.4
			C417.3,178.7,417.6,178.8,418,178.8 M415.2,177.9c0.3,0.2,1.3,0.5,1.3,0.5v3.6h-1.3C415.2,182,415.2,178.1,415.2,177.9 M438,184
			h-25v-1h25V184z"/>
		<path class="st47" d="M387,184.5c0-10.5-5.4-13.5-7-13.9v-1.9c0.3-0.4,1-1.6,1-4.2c0-0.1-0.1-0.3-0.1-0.4l-2-2
			c-0.1-0.1-0.2-0.2-0.4-0.1c-0.1,0-0.3,0.1-0.4,0.2l-1.5,1.7l-1.7-1.7c-0.2-0.2-0.5-0.2-0.7,0l-2,2c-0.1,0.1-0.1,0.2-0.1,0.4
			c0,2.5,0.7,3.8,1,4.2v1.9c-1.6,0.4-7,2.7-7,13.9c0,0,0,1,0.7,1.7c0.5,0.6,1.3,0.8,2.3,0.8c1.1,0,2.1-0.8,2.6-1.3
			c0.5,0.7,1.4,1.3,2.4,1.3c1.4,0,2.4-0.6,2.9-1.1c0.4,0.5,1.2,1.1,2.6,1.1c0.8,0,1.9-0.8,2.5-1.3c0.6,0.5,1.7,1.3,2.5,1.3
			c0.8,0,1.3-0.4,1.9-0.7C387,186,387,184.5,387,184.5 M374.5,163.2l1.5,1.5c0.2,0.2,0.4,0.4,0.6,0.4c0.2,0,0.3-0.2,0.6-0.4l1.4-1.5
			l1.5,1.5c0,2.5-0.9,3.4-0.9,3.4c-0.1,0.1-0.1,0.2-0.1,0.4l0,1.6c-1.4-0.6-2.1-0.2-2.5,0.1c-0.9-0.6-1.9-0.3-2.6-0.1v-1.6
			c0-0.1-0.1-0.3-0.1-0.4c0,0-0.8-0.9-0.9-3.4L374.5,163.2z M372.1,172.1c-0.3,0.5-0.6,1.1-0.8,1.9c0,0.1,0,0.3,0.2,0.3
			c0,0,0,0,0.1,0c0.1,0,0.2-0.1,0.2-0.2c0.3-1.2,0.8-1.9,1.4-2.4c0.3-0.2,0.6-0.5,0.6-0.5c0.3-0.4,0.3-0.3,0.3-0.5
			c0.5-0.2,1.3-0.5,1.8-0.3l0,0c0,0-1,0.9-1.2,3.6c0,0.1,0.1,0.3,0.2,0.3c0.1,0,0.3-0.1,0.3-0.2c0.3-2.7,1.1-3.4,1.1-3.4
			c0,0,0,0,0,0c0,0,0.3,0.1,0.3,0.1c0.2,0,0.2-0.1,0.4-0.2c0,0.1,1.1,0.9,1.3,3.4c0,0.1,0.1,0.2,0.3,0.2c0.1,0,0.2-0.1,0.2-0.3
			c-0.2-2.7-1.4-3.5-1.4-3.6c0,0,0.3-0.1,0.3-0.1c0.3,0,0.8,0.1,1.4,0.3c0,0.1,0.3,0.4,0.3,0.4c0.2,0.2,0.3,0.3,0.7,0.6
			c0.7,0.6,1.2,1.5,1.2,2.3c0,0.1,0.1,0.3,0.2,0.3h0c0.1,0,0.2-0.1,0.3-0.2c0-0.5-0.4-1.6-0.7-2c2.6,1.6,4.5,4.8,4.9,10.8
			c-0.5,0.6-1,1-1.4,1h0c-0.8,0-1.9-1-2.3-1.4c0,0,0,0,0,0c0,0,0,0-0.1,0c-0.1,0-0.1,0-0.2,0h0v0c0,0,0,0,0,0c0,0-0.1,0-0.1,0.1
			c0,0,0,0,0,0c0,0-0.9,1.4-2.3,1.4c-1.4,0-2.3-1.4-2.3-1.4c0,0,0,0-0.1-0.1c-0.1-0.1-0.2-0.1-0.3,0c0,0-1.4,1.4-2.8,1.4
			c-1.4,0-2.3-1.4-2.3-1.4c0,0,0,0,0,0c-0.1-0.1-0.2-0.1-0.3,0c0,0-1.6,1.4-2.8,1.4c-0.7,0-1.2-0.4-1.5-0.8
			C367.4,175.7,370.3,173,372.1,172.1 M385.7,185.6c-0.2,0.3-0.6,0.4-1.2,0.4c-0.5,0-1.6-0.8-2.2-1.4c-0.1-0.1-0.2-0.1-0.3-0.1
			s-0.2,0-0.3,0.1c-0.6,0.6-1.7,1.4-2.2,1.4c-1.7,0-2-1.1-2-1.1c0-0.2-0.2-0.3-0.4-0.4c-0.2,0-0.4,0.1-0.5,0.2
			c0,0.1-0.8,1.3-2.6,1.3c-0.8,0-1.5-0.6-2.2-1.4c-0.1-0.1-0.2-0.1-0.4-0.1c-0.1,0-0.3,0.1-0.4,0.2c0,0-1,1.3-2.1,1.3
			c-0.7,0-1.3-0.2-1.6-0.5c-0.4-0.4-0.4-1-0.4-1c0-0.3,0-0.6,0-0.9c0.4,0.3,0.8,0.6,1.5,0.6c1.2,0,2.5-1,3-1.4
			c0.4,0.5,1.2,1.4,2.5,1.4c1.3,0,2.5-0.9,3-1.4c0.4,0.5,1.3,1.4,2.5,1.4c1.3,0,2.2-0.9,2.5-1.4c0.5,0.4,1.6,1.4,2.5,1.4h0
			c0.5,0,1.1-0.3,1.5-0.8c0,0.4,0,0.7,0,1.1C386,184.5,386,185.2,385.7,185.6"/>
		<path class="st47" d="M336.5,168.8c-0.1-0.3-0.3-0.4-0.6-0.4c0,0-1.4,0.3-3.4,0.8c-0.5-1.6-2.3-6.1-7.6-6.1c-0.5,0-0.9,0-1.4,0.1
			c-6.3,0.9-6.4,5.9-6.4,7.7c0,0.5-0.1,1.7,0,2l-2.6,0.8c-0.3,0.1-0.4,0.3-0.4,0.6c0.1,0.2,0.3,0.4,0.5,0.4c0,0,0.1,0,0.1,0l2.4-0.7
			v10c0,0.8,1,1,1,1h15.5c0.1,0,0.3-0.1,0.4-0.2c0.1-0.1,0.1-0.3,0.1-0.4c-0.4-2.6-2.2-2.9-3.7-3.1l-0.2,0h0c-1.4-0.2-2.3-0.4-2.6-2
			c0,0,0-0.1,0-0.1c0-0.1-0.1-0.3-0.1-0.4c1.4-0.6,4.1-2.6,4.1-5.4V171c0-0.1,0-0.3,0-0.4l4.6-1.1
			C336.4,169.4,336.5,169.1,336.5,168.8 M319.1,167.1c0.9-1.6,2.4-2.6,4.5-2.9c0.4-0.1,0.9-0.1,1.3-0.1c2.3,0,4.2,1,5.5,3
			c0.3,0.4,0-0.2,0.2,0.2c-5.2,1.4-11,2.8-12.4,3.1C318.1,169.2,318.3,168.6,319.1,167.1 M327.2,171.6c0,1,0,4.9-1.3,7.3
			c-1.3,2.5-2.4,4.1-3.4,5.1h-1c0.7-0.9,2-2.7,3.2-4.8c1.6-2.8,1.8-7.1,1.9-7.4L327.2,171.6z M324,179.1c-1.3,2.3-2.7,4-3.4,4.8
			c0,0,0,0,0,0h-1.2c1.2-1.4,3.1-4.1,3.9-5.4c1.3-2,1.8-5.5,1.8-6.5l0.5-0.1C325.7,172.7,325.4,176.6,324,179.1 M322.8,178.1
			c-0.8,1.4-3.5,4.6-4.6,5.9v-1.5c0.1-0.1,0.9-0.8,1.1-1c0.9-1.1,2.3-2.8,2.9-4c1-1.9,1.3-4.4,1.4-5.1l0.7-0.2
			C324.2,173.3,323.9,176.2,322.8,178.1 M321.2,177.2c-0.6,1.3-3,4.1-3.1,4.1c0,0,0-1.3,0-1.3c2.4-2.8,3.6-6.5,3.6-7.2l0.9-0.2
			C322.6,173.4,322,175.4,321.2,177.2 M318.2,178.7v-1.2c0.7-0.8,1.8-3.6,2-4.3l0.6-0.1C320.7,173.9,320,176.4,318.2,178.7
			 M318.2,175.8c0,0,0-2.1,0-2.1l1-0.3C319,174.2,318.5,175.2,318.2,175.8 M330,182.3C330,182.3,330,182.3,330,182.3l0.2,0
			c1.3,0.2,2.3,0.3,2.7,1.6h-9c0.9-1.1,1.5-2.2,2.6-4.4c0,0.2,0,0,0,0.1C327,181.9,328.8,182.1,330,182.3 M330.5,173.5
			c0,2.4-2.4,4-3.4,4.4c0.9-2.5,0.9-5.7,0.9-6.5l2.5-0.6L330.5,173.5z M318.2,172.8c0-0.2,0-1,0-1.3c1.3-0.3,7.5-1.9,12.8-3.4
			c0.1,0.3,0.5,1.2,0.6,1.4L318.2,172.8z"/>
		<path class="st41" d="M606.5,66.6c0,0-0.1,0-0.1,0c-0.2-0.1-0.4-0.3-0.4-0.5V52.9l-2.2,5.8c-0.1,0.2-0.3,0.3-0.5,0.3H600v-1h3
			l3-7.7c0.1-0.2,0.3-0.3,0.6-0.3c0.2,0,0.4,0.3,0.4,0.5V64l2.6-5.7c0.1-0.2,0.3-0.3,0.4-0.3h3v1h-2.7l-3.4,7.3
			C606.9,66.5,606.7,66.6,606.5,66.6"/>
		<polygon class="st56" points="71,200.1 50,221 71,242 72.9,240.1 53.9,221.1 72.9,202.1 		"/>
		<polygon class="st37" points="121,200 100,220.9 121,241.9 122.9,240 103.9,221 122.9,202 		"/>
		<polygon class="st56" points="151.9,200.1 172.9,221 151.9,242 150,240.1 169,221.1 150,202.1 		"/>
		<polygon class="st37" points="201.9,200 222.9,220.9 201.9,241.9 200,240 219,221 200,202 		"/>
		<path class="st32" d="M675,101.5c13,0,23.5,10.5,23.5,23.4c0,12.9-10.5,23.4-23.5,23.4s-23.5-10.5-23.5-23.4
			C651.5,112,662,101.5,675,101.5 M675,100c-13.8,0-25,11.2-25,24.9c0,13.8,11.2,24.9,25,24.9s25-11.2,25-24.9
			C700,111.2,688.8,100,675,100"/>
		<rect x="665" y="123" class="st32" width="20" height="4"/>
		<rect x="673" y="115" class="st32" width="4" height="20"/>
		<path class="st30" d="M739,104h-8.1l-1.7-3.5c-0.2-0.3-0.5-0.5-0.9-0.5h-10.7c-0.4,0-0.7,0.2-0.9,0.5L715,104h-4v-2.3
			c0-0.6-0.4-1-1-1s-1,0.4-1,1v2.3h-2.1c-2.9,0-4.9,3-4.9,5v17c0,4,3.3,5,5,5h32c4,0,5-2.8,5-4.3V109C744,105,740.7,104,739,104
			 M742,126.7c0,0.4-0.2,2.3-3,2.3h-32c-0.3,0-3-0.1-3-3v-17c0-0.3,1-3,2.9-3h8.7c0.4,0,0.7-0.2,0.9-0.5l1.8-3.5h9.5l1.7,3.5
			c0.2,0.3,0.5,0.5,0.9,0.5h8.7c0.3,0,3,0.1,3,3V126.7z"/>
		<path class="st30" d="M738,108h-2.7c-0.6,0-1,0.4-1,1s0.4,1,1,1h2.7c0.6,0,1-0.4,1-1S738.6,108,738,108"/>
		<path class="st30" d="M723,107c-5.3,0-9.7,3.4-9.7,9.7c0,5.3,4.3,9.7,9.7,9.7s9.7-4.3,9.7-9.7S728.3,107,723,107 M723,124.3
			c-4.2,0-7.7-3.4-7.7-7.7c0-4.2,3.4-7.7,7.7-7.7c4.2,0,7.7,3.4,7.7,7.7C730.7,120.9,727.2,124.3,723,124.3"/>
		<path class="st32" d="M653.1,56.6c0.2-0.2,0.5-0.2,0.7,0l3.1,3.1v-7.3c0-0.3,0.2-0.5,0.5-0.5s0.5,0.2,0.5,0.5v7.3l3.1-3.1
			c0.1-0.1,0.2-0.1,0.4-0.1c0.1,0,0.3,0,0.4,0.1c0.2,0.2,0.2,0.5,0,0.7l-4,4c0,0-0.1,0.1-0.2,0.1c-0.1,0.1-0.3,0.1-0.4,0
			c-0.1,0-0.1-0.1-0.2-0.1l-4-4C653,57.2,653,56.8,653.1,56.6"/>
		<path class="st32" d="M664.5,63h-2c-0.3,0-0.5-0.2-0.5-0.5s0.2-0.5,0.5-0.5h1.5V51h-13v11h1.5c0.3,0,0.5,0.2,0.5,0.5
			s-0.2,0.5-0.5,0.5h-2c-0.3,0-0.5-0.2-0.5-0.5v-12c0-0.3,0.2-0.5,0.5-0.5h14c0.3,0,0.5,0.2,0.5,0.5v12C665,62.8,664.8,63,664.5,63"
			/>
		<path class="st28" d="M709,50c-5,0-9,4-9,9c0,5,4,9,9,9s9-4,9-9C718,54,714,50,709,50 M710,64h-2v-6h2V64z M710,56h-2v-2h2V56z"/>
		<polygon class="st17" points="750,100 766,100 758,108 		"/>
		<polygon class="st9" points="800,100 816,100 808,108 		"/>
		<path class="st17" d="M669,174.8h-4l-1.2,3.4H663l3.6-10.2h0.9l3.6,10.2h-0.9L669,174.8z M668.8,174.1l-0.6-1.8
			c-0.4-1.2-0.8-2.3-1.1-3.5H667c-0.4,1.2-0.7,2.3-1.1,3.5l-0.6,1.8H668.8z"/>
		<polygon class="st17" points="672.6,168 673.4,168 673.4,177.5 678.1,177.5 678.1,178.2 672.6,178.2 		"/>
		<polygon class="st17" points="679.9,168 680.7,168 680.7,177.5 685.4,177.5 685.4,178.2 679.9,178.2 		"/>
		<path class="st47" d="M669,224.8h-4l-1.2,3.4H663l3.6-10.2h0.9l3.6,10.2h-0.9L669,224.8z M668.8,224.1l-0.6-1.8
			c-0.4-1.2-0.8-2.3-1.1-3.5H667c-0.4,1.2-0.7,2.3-1.1,3.5l-0.6,1.8H668.8z"/>
		<polygon class="st47" points="672.6,218 673.4,218 673.4,227.5 678.1,227.5 678.1,228.2 672.6,228.2 		"/>
		<polygon class="st47" points="679.9,218 680.7,218 680.7,227.5 685.4,227.5 685.4,228.2 679.9,228.2 		"/>
		<path class="st32" d="M764,51c7.2,0,13,5.8,13,13c0,7.2-5.8,13-13,13s-13-5.8-13-13C751,56.8,756.8,51,764,51 M764,50
			c-7.7,0-14,6.3-14,14s6.3,14,14,14s14-6.3,14-14S771.7,50,764,50"/>
		<polygon class="st32" points="763,57 757,57 757,63 758,63 758,59 762,63 763,62 759,58 763,58 		"/>
		<polygon class="st32" points="757,65 757,71 763,71 763,70 759,70 763,66 762,65 758,69 758,65 		"/>
		<polygon class="st32" points="765,57 771,57 771,63 770,63 770,59 766,63 765,62 769,58 765,58 		"/>
		<polygon class="st32" points="771,65 771,71 765,71 765,70 769,70 765,66 766,65 770,69 770,65 		"/>
		<rect x="3" y="250" class="st40" width="1" height="7"/>
		<rect y="253" class="st40" width="7" height="1"/>
		<polygon class="st40" points="101,252 100,253 104,257 110,251 109,250 104,255 		"/>
		<path class="st40" d="M154,260l1-1l-2-2h8v-1h-11L154,260z M157,250l-1,1l2,2h-8v1h11L157,250z"/>
		<rect x="503" y="400" class="st54" width="1" height="7"/>
		<rect x="500" y="403" class="st54" width="7" height="1"/>
		<polygon class="st54" points="551,402 550,403 554,407 560,401 559,400 554,405 		"/>
		<path class="st54" d="M604,410l1-1l-2-2h8v-1h-11L604,410z M607,400l-1,1l2,2h-8v1h11L607,400z"/>
		<path class="st4" d="M20,360c0,5.5-4.5,10-10,10s-10-4.5-10-10s4.5-10,10-10S20,354.5,20,360"/>
		<path class="st32" d="M254.5,263c0,0-0.1,0-0.1,0c-0.2-0.1-0.4-0.3-0.4-0.5V252l-2.1,4.8c-0.1,0.2-0.3,0.2-0.4,0.2H250v-1h1.2
			l2.9-5.8c0.1-0.2,0.3-0.3,0.6-0.2c0.2,0.1,0.4,0.3,0.4,0.5V261l2.1-4.8c0.1-0.2,0.3-0.2,0.4-0.2h1.5v1h-1.2l-2.9,5.8
			C254.8,262.9,254.7,263,254.5,263"/>
		<polygon class="st53" points="250,200 280,200 280,230 		"/>
		<path class="st41" d="M5.9,304.1c-1.1,0-2,0.9-2,2c0,1.1,0.9,2,2,2s2-0.9,2-2C7.8,305,7,304.1,5.9,304.1 M5.9,300.2
			c-3.2,0-5.9,2.6-5.9,5.9c0,3.2,5.9,9.8,5.9,9.8s5.9-6.5,5.9-9.8C11.8,302.8,9.1,300.2,5.9,300.2 M5.9,310C3.7,310,2,308.2,2,306
			s1.8-3.9,3.9-3.9s3.9,1.8,3.9,3.9S8,310,5.9,310"/>
		<path class="st41" d="M56,312.7c-2.7,0-4.2-0.5-4.4-0.8c0.1-1.4,3-3.6,4.5-3.6c1.5,0,4.3,2.1,4.4,3.6
			C60.2,312.2,58.7,312.7,56,312.7 M56,301.4c1.5,0,2.7,1.2,2.7,2.7s-1.2,2.7-2.7,2.7c-1.5,0-2.7-1.2-2.7-2.7S54.5,301.4,56,301.4
			 M58.2,307.6c1.1-0.7,1.9-2,1.9-3.5c0-2.3-1.9-4.1-4.1-4.1c-2.3,0-4.1,1.9-4.1,4.1c0,1.5,0.8,2.8,1.9,3.5
			c-1.9,0.9-3.7,2.8-3.7,4.4c0,1.9,4.1,2.1,5.9,2.1c1.8,0,5.9-0.2,5.9-2.1C61.8,310.4,60.1,308.6,58.2,307.6"/>
		<path class="st41" d="M110.9,305.7c0,0.7-0.3,1.4-0.8,1.9l-2.6,2.6c-0.5,0.5-1.2,0.8-1.9,0.8c-0.4,0-0.8-0.1-1.1-0.3l1.3-1.3
			c0.3-0.3,0.3-0.9,0-1.2c-0.3-0.3-0.9-0.3-1.2,0l-1.3,1.3c-0.2-0.3-0.3-0.7-0.3-1.1c0-0.7,0.3-1.4,0.8-1.9l2.6-2.6
			c0.5-0.5,1.2-0.8,1.9-0.8c0.4,0,0.8,0.1,1.1,0.3l-1.3,1.3c-0.3,0.3-0.3,0.9,0,1.2c0.2,0.2,0.4,0.3,0.6,0.3c0.2,0,0.4-0.1,0.6-0.3
			l1.3-1.3C110.8,304.9,110.9,305.3,110.9,305.7 M113.7,300.3c-0.3-0.3-0.9-0.3-1.2,0l-1.8,1.8c-0.7-0.5-1.6-0.7-2.4-0.7
			c-1.1,0-2.3,0.4-3.1,1.3l-2.6,2.6c-1.5,1.5-1.7,3.8-0.6,5.5l-1.8,1.8c-0.3,0.3-0.3,0.9,0,1.2c0.2,0.2,0.4,0.3,0.6,0.3
			c0.2,0,0.4-0.1,0.6-0.3l1.8-1.8c0.7,0.5,1.6,0.7,2.4,0.7c1.1,0,2.2-0.4,3.1-1.3l2.6-2.6c1.5-1.5,1.7-3.8,0.6-5.5l1.8-1.8
			C114.1,301.2,114.1,300.6,113.7,300.3"/>
		<path class="st41" d="M163.5,313.1h-11c-1.4,0-2.5-1.2-2.5-2.7v-6.2c0-1.5,1.1-2.7,2.5-2.7h2.6c0.2-0.5,0.3-0.6,0.4-0.7
			c0.6-0.7,1.4-0.7,1.9-0.7c0,0,0.5,0,1.1,0h0.1c0.4,0,1.4,0,1.9,1c0.1,0.1,0.2,0.3,0.3,0.5h2.7c1.4,0,2.5,1.2,2.5,2.7v6.2
			C166,311.9,164.9,313.1,163.5,313.1 M152.5,302.8c-0.6,0-1.1,0.6-1.1,1.3v6.2c0,0.7,0.5,1.3,1.1,1.3h11c0.6,0,1.1-0.6,1.1-1.3
			v-6.2c0-0.7-0.5-1.3-1.1-1.3h-3.6l-0.2-0.4c-0.2-0.4-0.3-0.6-0.4-0.8c0-0.1-0.1-0.2-0.7-0.2h0c-0.6,0-1.1,0-1.1,0
			c-0.5,0-0.7,0-0.8,0.2c0,0-0.1,0.2-0.4,0.8l-0.2,0.4H152.5z"/>
		<path class="st41" d="M158,311.2c-2.2,0-3.9-1.8-3.9-3.9c0-2.2,1.8-3.9,3.9-3.9s3.9,1.8,3.9,3.9
			C161.9,309.4,160.2,311.2,158,311.2 M158,304.7c-1.4,0-2.6,1.1-2.6,2.6c0,1.4,1.1,2.5,2.6,2.5c1.4,0,2.6-1.1,2.6-2.5
			C160.5,305.8,159.4,304.7,158,304.7"/>
		<path class="st41" d="M205.1,301.5c2,0,3.6,1.6,3.6,3.6s-3.6,7.1-3.6,7.1s-3.6-5.1-3.6-7.1S203.1,301.5,205.1,301.5 M205.1,300
			c-2.8,0-5.1,2.3-5.1,5.1c0,0.7,0.2,2,2,5.1c0.9,1.6,1.8,2.8,1.9,2.9l1.2,1.7l1.2-1.7c0-0.1,1-1.3,1.9-2.9c1.8-3,2-4.3,2-5.1
			C210.2,302.3,207.9,300,205.1,300"/>
		<path class="st41" d="M206.6,305.1c0,0.8-0.7,1.5-1.5,1.5c-0.8,0-1.5-0.7-1.5-1.5c0-0.8,0.7-1.5,1.5-1.5
			C205.9,303.6,206.6,304.2,206.6,305.1"/>
		<path class="st50" d="M256,302.6c0,0-1-2.6-3-2.6s-3,1.8-3,3.4c0,4.5,5,6.8,6,8.7c1-1.9,6-4.1,6-8.7c0-1.5-1-3.4-3-3.4
			C257,300,256,302.6,256,302.6"/>
		<path class="st31" d="M306,302.6c0,0-1-2.6-3-2.6s-3,1.8-3,3.4c0,4.5,5,6.8,6,8.7c1-1.9,6-4.1,6-8.7c0-1.5-1-3.4-3-3.4
			C307,300,306,302.6,306,302.6"/>
		<path class="st17" d="M358,307l3,3l3-3h-2v-6c0-0.7-0.3-1-1-1h-5v2h4v5H358z M356,303l-3-3l-3,3h2v6c0,0.7,0.3,1,1,1h5v-2h-4v-5
			H356z"/>
		<path class="st32" d="M408,307l3,3l3-3h-2v-6c0-0.7-0.3-1-1-1h-5v2h4v5H408z M406,303l-3-3l-3,3h2v6c0,0.7,0.3,1,1,1h5v-2h-4v-5
			H406z"/>
		<path class="st3" d="M65.5,350h53c8.6,0,15.5,6.9,15.5,15.5v1c0,8.6-6.9,15.5-15.5,15.5h-53c-8.6,0-15.5-6.9-15.5-15.5v-1
			C50,356.9,56.9,350,65.5,350"/>
		<path class="st56" d="M16.9,358.2l-2.2-3c-0.1-0.1-0.3-0.2-0.4-0.2H5.7c-0.2,0-0.3,0.1-0.4,0.2l-2.2,3c-0.1,0.2-0.1,0.4,0,0.6
			l6.5,8c0,0,0,0,0,0c0,0,0.1,0.1,0.1,0.1c0,0,0,0,0.1,0c0.1,0,0.1,0,0.2,0s0.1,0,0.2,0c0,0,0,0,0.1,0c0.1,0,0.1-0.1,0.1-0.1
			c0,0,0,0,0,0l6.5-8C17,358.6,17,358.4,16.9,358.2 M8.9,358l1.1-1.6l1.1,1.6H8.9z M11.5,359l-1.5,5.4L8.5,359H11.5z M11,356h2.3
			l-1.1,1.6L11,356z M7.8,357.6L6.7,356H9L7.8,357.6z M6.8,358H4.5l1.1-1.6L6.8,358z M7.4,359l1.4,5.2L4.6,359H7.4z M12.6,359h2.8
			l-4.2,5.2L12.6,359z M13.2,358l1.1-1.6l1.1,1.6H13.2z"/>
		<path class="st56" d="M76,363.2l-2.5-4c-0.1-0.1-0.3-0.2-0.5-0.2h-9.8c-0.2,0-0.4,0.1-0.5,0.2l-2.5,4c-0.1,0.2-0.1,0.4,0,0.6
			l7.4,10c0,0,0,0,0,0c0,0,0.1,0.1,0.2,0.1c0,0,0,0,0.1,0c0.1,0,0.2,0,0.2,0c0.1,0,0.2,0,0.2,0c0,0,0,0,0.1,0c0.1,0,0.1-0.1,0.2-0.1
			c0,0,0,0,0,0l7.4-10C76.2,363.6,76.2,363.4,76,363.2 M66.8,363l1.3-2.6l1.3,2.6H66.8z M69.8,364l-1.7,7.4l-1.7-7.4H69.8z
			 M69.3,360h2.6l-1.3,2.6L69.3,360z M65.7,362.6l-1.3-2.6H67L65.7,362.6z M64.5,363h-2.6l1.3-2.6L64.5,363z M65.2,364l1.6,7.2
			L62,364H65.2z M71.1,364h3.2l-4.8,7.2L71.1,364z M71.8,363l1.3-2.6l1.3,2.6H71.8z"/>
		<path class="st56" d="M82.4,366.2c0.5-0.2,1-0.4,1.5-0.7V363h-1.4v-0.8h1.4V360h0.9v2.1h1.3v0.8h-1.3v2.1c0.4-0.2,0.8-0.4,1.2-0.6
			c0,0.4,0.1,0.7,0.1,0.9c-0.4,0.2-0.8,0.4-1.3,0.7v4.1c0,0.8-0.4,1.3-1.1,1.3c-0.3,0-0.6,0-1,0c0-0.3-0.1-0.6-0.1-1
			c0.4,0,0.7,0,0.9,0c0.3,0,0.5-0.1,0.5-0.4v-3.6c-0.5,0.2-0.9,0.5-1.4,0.7L82.4,366.2z M85.6,368.6l0.5-0.6c0.5,0.3,1,0.7,1.5,1
			c0.3-0.4,0.6-0.9,0.7-1.4h-2.8v-0.7h3.6v0.7c-0.2,0.7-0.5,1.3-0.9,1.9c0.3,0.2,0.6,0.5,0.9,0.7l-0.5,0.7c-0.3-0.3-0.6-0.5-0.9-0.7
			c-0.6,0.6-1.3,1.1-2.2,1.5c-0.1-0.2-0.3-0.5-0.5-0.8c0.8-0.3,1.5-0.7,2.1-1.2C86.6,369.3,86.1,368.9,85.6,368.6 M85.8,365.5
			c0.4,0,0.8,0,1.1-0.1v-4.2h-1.1v-0.7h7.9v0.7h-1.2v3.9l1.4-0.1c0,0.3,0,0.5,0,0.8l-1.3,0.1v0.8h-0.8v-0.7
			c-1.9,0.1-3.9,0.2-5.8,0.4L85.8,365.5z M87.8,362.2h4v-0.9h-4V362.2z M87.8,363.7h4v-0.9h-4V363.7z M91.7,365.2v-0.8h-4v1
			C89.1,365.3,90.4,365.3,91.7,365.2 M89.6,367.6v-0.7h4v0.7c-0.3,0.9-0.7,1.7-1.3,2.3c0.5,0.4,1.2,0.6,1.9,0.8
			c-0.2,0.3-0.3,0.5-0.4,0.8c-0.8-0.2-1.5-0.6-2.1-1c-0.6,0.5-1.4,0.8-2.2,1.1c-0.1-0.2-0.3-0.5-0.5-0.8c0.8-0.2,1.5-0.5,2.1-0.9
			c-0.6-0.6-1-1.4-1.2-2.3H89.6z M92.8,367.6h-2.1c0.2,0.7,0.6,1.3,1,1.8C92.2,368.9,92.5,368.3,92.8,367.6"/>
		<path class="st56" d="M94.9,370.7c0.6-0.5,1.1-1.1,1.8-1.8l0.7,0.5c-0.7,0.8-1.3,1.4-1.8,1.9L94.9,370.7z M95,364.9h3.2
			c-0.1-0.2-0.2-0.4-0.4-0.6l0.5-0.3h-1.9v0.3h-0.8v-3.8h5.8v3.8h-0.8V364h-2c0.2,0.3,0.3,0.6,0.5,0.9h3.1v0.7H95V364.9z
			 M95.8,366.2h5.5v2.5h-0.8v-0.2H99v1.6c0,0.9-0.4,1.3-1.2,1.3c-0.3,0-0.6,0-1.1,0c0-0.3-0.1-0.6-0.2-0.8c0.4,0.1,0.7,0.1,1,0.1
			c0.4,0,0.6-0.2,0.6-0.7v-1.5h-1.6v0.2h-0.8V366.2z M100.6,361.2h-4.2v0.8h4.2V361.2z M96.4,363.4h4.2v-0.8h-4.2V363.4z
			 M100.5,366.9h-3.9v1h3.9V366.9z M99.6,369.3l0.6-0.5c0.4,0.4,0.9,0.8,1.5,1.3l-0.6,0.6C100.6,370.2,100.1,369.8,99.6,369.3
			 M101.5,370.9c1.8-1.1,3.2-2.5,4.3-4.2l0.7,0.5c-1.2,1.8-2.7,3.3-4.4,4.3C101.9,371.3,101.7,371.1,101.5,370.9 M101.8,363.2
			c1.2-0.7,2.2-1.7,3.2-3l0.7,0.5c-1,1.3-2.1,2.3-3.3,3.1C102.2,363.6,102,363.4,101.8,363.2 M101.9,366.7c1.4-0.9,2.6-2.1,3.6-3.5
			l0.7,0.6c-1.2,1.4-2.4,2.6-3.7,3.6C102.3,367.1,102.1,366.8,101.9,366.7"/>
		<path class="st56" d="M108,360.9h0.9v7.7H108V360.9z M110.2,360.1h0.9v5.7c0,2.5-0.7,4.5-2,5.8c-0.3-0.3-0.5-0.5-0.8-0.6
			c1.2-1.2,1.9-2.9,1.9-5.2V360.1z M113.1,369.8h-0.9v-6.8h2.6v-1.7h-3.1v-0.8h7.2v0.8h-3.2v1.7h2.7v5.3c0,0.9-0.4,1.3-1.2,1.3
			c-0.3,0-0.7,0-1.1,0c0-0.3-0.1-0.6-0.2-0.9c0.4,0.1,0.8,0.1,1,0.1c0.4,0,0.7-0.2,0.7-0.6v-4.4h-1.8v7.7h-0.9v-7.7h-1.8V369.8z"/>
		<path class="st56" d="M17,401c0.6,0.6,0.6,1.4,0,2l-1,1l-2-2l1-1C15.6,400.4,16.4,400.4,17,401 M6,410l-1,3l3-1l7-7l-2.1-2L6,410z
			 M13,409v6H3v-10h6l2-2H1v14h14v-10L13,409z"/>
		<path class="st54" d="M65,402h-6v-2h-3v2h-6v2h1v12c0,1,1,1,1,1h11c1,0,1-1,1-1v-12h-1v11c0,1-1,1-1,1h-9c-1,0-1-1-1-1v-11h13V402
			z M55,405h-1v10h1V405z M58,405h-1v10h1V405z M61,405h-1v10h1V405z"/>
		<path class="st56" d="M100,416h21v-16h-21V416z M119,414h-17V402h17V414z M113,406l-2,3l-3-5l-4,8h13L113,406z"/>
		<path class="st56" d="M150.1,400h13.8l0.1,5.2h-1.3l-0.1-1.5c-0.1-0.8-0.3-1.4-0.7-1.8c-0.4-0.4-1.1-0.5-2-0.5
			c-0.7,0-1.1,0.1-1.4,0.4c-0.2,0.2-0.4,0.8-0.4,1.5l0,9.5c0,0.8,0.1,1.3,0.4,1.5c0.2,0.2,0.7,0.4,1.4,0.4h1v1.4h-7.7v-1.4h1.1
			c0.6,0,1-0.1,1.3-0.4c0.2-0.3,0.4-0.7,0.4-1.5v-9.5c0-0.7-0.1-1.2-0.4-1.5s-0.7-0.4-1.4-0.4c-0.9,0-1.6,0.2-2,0.5
			c-0.4,0.4-0.7,1-0.7,1.8l-0.1,1.5H150L150.1,400z"/>
		<path class="st41" d="M625.9,285.4c5.4-7,0.8-19.4,0.8-19.4s-1.2,10.4-7.6,11.3c-5.3-4.4-12-7-19.4-7c-7.4,0-14.2,2.7-19.5,7.1
			c-6.6-0.7-7.9-11.3-7.9-11.3s-4.7,12.6,1,19.6c-2.5,4.4-4,9.6-4,15c0,16.8,13.6,30.4,30.4,30.4s30.4-13.6,30.4-30.4
			C630,295.1,628.5,289.9,625.9,285.4 M599.6,325.1c-13.5,0-24.4-11-24.4-24.4c0-13.5,11-24.4,24.4-24.4c13.5,0,24.4,11,24.4,24.4
			C624.1,314.1,613.1,325.1,599.6,325.1"/>
		<path class="st41" d="M599.5,319.5c5.9,0,10.9-3.6,11.9-8.4l-23.9,0C588.6,315.9,593.6,319.5,599.5,319.5"/>
		<path class="st41" d="M595.7,294.8c0-2.7-2.2-4.8-4.8-4.8s-4.8,2.2-4.8,4.8s2.2,4.8,4.8,4.8S595.7,297.4,595.7,294.8"/>
		<path class="st41" d="M608.4,289.9c-2.7,0-4.8,2.2-4.8,4.8c0,2.7,2.2,4.8,4.8,4.8s4.8-2.2,4.8-4.8
			C613.2,292.1,611,289.9,608.4,289.9"/>
		<path class="st54" d="M200,414h11v-2h-11V414z M200,410h15v-2h-15V410z M211,404h-11v2h11V404z M200,402h15v-2h-15V402z"/>
		<path class="st54" d="M252,414h11v-2h-11V414z M250,410h15v-2h-15V410z M252,406h11v-2h-11V406z M250,402h15v-2h-15V402z"/>
		<path class="st54" d="M304,414h11v-2h-11V414z M300,410h15v-2h-15V410z M304,406h11v-2h-11V406z M300,402h15v-2h-15V402z"/>
		<polygon class="st56" points="357,400 350,407 357,414 358,413 352,407 358,401 		"/>
		<path class="st56" d="M407.1,400h-1.9l-5.2,13.6h1.9l1.3-3.7h5.7l1.4,3.7h1.9L407.1,400z M403.8,408.3l2-5.7
			c0.1-0.2,0.2-0.5,0.2-0.9h0c0.1,0.5,0.1,0.8,0.2,0.9l2.1,5.7H403.8z"/>
		<path class="st56" d="M458.4,407.6l1.6,4.4c0.1,0.1,0.1,0.2,0.1,0.3c0,0.1,0,0.2,0,0.2c0,0.1-0.1,0.1-0.2,0.1
			c-0.1,0-0.3,0.1-0.4,0.1l-1.3,0.2v0.3c0.2,0,0.5,0,0.8,0c0.3,0,0.6,0,0.9,0h1.1c1.1,0,1.9,0,2.6,0.1v-0.3l-1.1-0.3
			c-0.2-0.1-0.4-0.1-0.4-0.2c-0.1-0.1-0.2-0.2-0.3-0.5l-4.4-11.9h-0.6l-4.5,12c-0.2,0.5-0.5,0.7-0.9,0.7l-1.3,0.1v0.4
			c0.1,0,0.4,0,0.8,0c0.4,0,1,0,1.6,0s1.2,0,1.6,0c0.4,0,0.7,0,0.8,0v-0.4l-1.4-0.1c-0.4,0-0.6-0.1-0.6-0.2c0-0.1,0-0.3,0-0.5
			l1.6-4.5H458.4z M454.7,407.1l1.7-5l1.8,5H454.7z"/>
		<path class="st55" d="M475,348.5c-13,0-23.5-10.5-23.5-23.5s10.5-23.5,23.5-23.5s23.5,10.5,23.5,23.5S488,348.5,475,348.5"/>
		<path class="st56" d="M475,303c12.1,0,22,9.9,22,22s-9.9,22-22,22s-22-9.9-22-22S462.9,303,475,303 M475,300
			c-13.8,0-25,11.2-25,25c0,13.8,11.2,25,25,25s25-11.2,25-25C500,311.2,488.8,300,475,300"/>
		<polygon class="st56" points="469.1,330 467.9,330 467.9,325.9 463.3,325.9 463.3,330 462.2,330 462.2,320.9 463.3,320.9 
			463.3,324.9 467.9,324.9 467.9,320.9 469.1,320.9 		"/>
		<path class="st56" d="M472.1,325.6c0-1.5,0.4-2.6,1.2-3.5c0.8-0.9,1.9-1.3,3.2-1.3c1.3,0,2.3,0.4,3,1.3c0.8,0.8,1.2,2,1.2,3.3
			c0,1.5-0.4,2.6-1.2,3.5c-0.8,0.9-1.8,1.3-3.2,1.3c-1.3,0-2.3-0.4-3.1-1.3C472.5,328,472.1,326.9,472.1,325.6 M473.3,325.5
			c0,1.1,0.3,2,0.8,2.6c0.6,0.7,1.3,1,2.2,1c1,0,1.7-0.3,2.3-1c0.6-0.6,0.8-1.5,0.8-2.7c0-1.2-0.3-2.1-0.8-2.7c-0.5-0.6-1.3-1-2.2-1
			c-0.9,0-1.7,0.3-2.3,1C473.6,323.5,473.3,324.4,473.3,325.5"/>
		<polygon class="st56" points="488.5,322 485.9,322 485.9,330 484.7,330 484.7,322 482.1,322 482.1,320.9 488.5,320.9 		"/>
		<path class="st53" d="M525,348.5c-13,0-23.5-10.5-23.5-23.5s10.5-23.5,23.5-23.5s23.5,10.5,23.5,23.5S538,348.5,525,348.5"/>
		<path class="st56" d="M525,303c12.1,0,22,9.9,22,22s-9.9,22-22,22s-22-9.9-22-22S512.9,303,525,303 M525,300
			c-13.8,0-25,11.2-25,25c0,13.8,11.2,25,25,25s25-11.2,25-25C550,311.2,538.8,300,525,300"/>
		<path class="st56" d="M518.6,330h-1.4l-4.6-7.1c-0.1-0.2-0.2-0.4-0.3-0.6h0c0,0.2,0,0.6,0,1.3v6.4h-1.2v-9.1h1.5l4.4,6.9
			c0.2,0.3,0.3,0.5,0.4,0.6h0c0-0.3-0.1-0.7-0.1-1.3v-6.2h1.2V330z"/>
		<polygon class="st56" points="527,330 522.1,330 522.1,320.9 526.8,320.9 526.8,322 523.3,322 523.3,324.9 526.5,324.9 
			526.5,325.9 523.3,325.9 523.3,329 527,329 		"/>
		<path class="st56" d="M541,320.9l-2.5,9.1h-1.4l-1.8-6.5c-0.1-0.3-0.1-0.6-0.1-0.9h0c0,0.3-0.1,0.6-0.2,0.9l-1.8,6.6h-1.4
			l-2.6-9.1h1.3l1.9,6.9c0.1,0.3,0.1,0.6,0.1,0.9h0c0-0.2,0.1-0.5,0.2-0.9l2-6.9h1.2l1.9,6.9c0.1,0.2,0.1,0.5,0.2,0.9h0
			c0-0.3,0.1-0.5,0.2-0.9l1.8-6.9H541z"/>
		<path class="st53" d="M525,398.5c-13,0-23.5-10.5-23.5-23.5s10.5-23.5,23.5-23.5s23.5,10.5,23.5,23.5S538,398.5,525,398.5"/>
		<path class="st56" d="M525,353c12.1,0,22,9.9,22,22s-9.9,22-22,22s-22-9.9-22-22S512.9,353,525,353 M525,350
			c-13.8,0-25,11.2-25,25c0,13.8,11.2,25,25,25s25-11.2,25-25C550,361.2,538.8,350,525,350"/>
		<path class="st2" d="M356,350.2c0-0.1-0.1-0.2-0.2-0.2c-0.1,0-0.2,0.1-0.2,0.2l-1.2,3.7c0,0.1-0.1,0.2-0.2,0.2h-3.9
			c-0.1,0-0.2,0.1-0.2,0.2s0,0.2,0.1,0.3l3.2,2.3c0.1,0.1,0.1,0.2,0.1,0.3l-1.2,3.8c0,0.1,0,0.2,0.1,0.3c0.1,0.1,0.2,0.1,0.3,0
			l3.1-2.3c0.1-0.1,0.2-0.1,0.3,0l3.1,2.3c0.1,0.1,0.2,0.1,0.3,0c0.1-0.1,0.1-0.2,0.1-0.3l-1.2-3.8c0-0.1,0-0.2,0.1-0.3l3.1-2.3
			c0.1-0.1,0.1-0.2,0.1-0.3c0-0.1-0.1-0.2-0.2-0.2h-3.9c-0.1,0-0.2-0.1-0.2-0.2L356,350.2z"/>
		<path class="st32" d="M406,350.2c0-0.1-0.1-0.2-0.2-0.2c-0.1,0-0.2,0.1-0.2,0.2l-1.2,3.7c0,0.1-0.1,0.2-0.2,0.2h-3.9
			c-0.1,0-0.2,0.1-0.2,0.2s0,0.2,0.1,0.3l3.2,2.3c0.1,0.1,0.1,0.2,0.1,0.3l-1.2,3.8c0,0.1,0,0.2,0.1,0.3c0.1,0.1,0.2,0.1,0.3,0
			l3.1-2.3c0.1-0.1,0.2-0.1,0.3,0l3.1,2.3c0.1,0.1,0.2,0.1,0.3,0c0.1-0.1,0.1-0.2,0.1-0.3l-1.2-3.8c0-0.1,0-0.2,0.1-0.3l3.1-2.3
			c0.1-0.1,0.1-0.2,0.1-0.3c0-0.1-0.1-0.2-0.2-0.2h-3.9c-0.1,0-0.2-0.1-0.2-0.2L406,350.2z"/>
		<path class="st41" d="M306,351c2.8,0,5,2.2,5,5s-2.2,5-5,5s-5-2.2-5-5S303.2,351,306,351 M306,350c-3.3,0-6,2.7-6,6s2.7,6,6,6
			s6-2.7,6-6S309.3,350,306,350"/>
		<polygon class="st41" points="309,357 305,357 305,353 306,353 306,356 309,356 		"/>
		<path class="st56" d="M959,20c-5,0-9-4-9-9V9c0-5,4-9,9-9s9,4,9,9v2C968,16,964,20,959,20 M959,4c-2.8,0-5,2.2-5,5v2
			c0,2.8,2.2,5,5,5s5-2.2,5-5V9C964,6.2,961.8,4,959,4"/>
		<path class="st56" d="M952,25c-1.1,0-2-0.9-2-2V11c0-1.1,0.9-2,2-2s2,0.9,2,2v12C954,24.1,953.1,25,952,25"/>
		<path class="st52" d="M950,75c0,13.8-11.2,25-25,25s-25-11.2-25-25c0-13.8,11.2-25,25-25S950,61.2,950,75"/>
		<path class="st52" d="M947,165c-6.1,0-11-4.9-11-11c0-0.5,0-0.9,0.1-1.4c-3.3-1.7-7.1-2.6-11.1-2.6c-13.8,0-25,11.2-25,25
			c0,13.8,11.2,25,25,25s25-11.2,25-25c0-3.6-0.8-7-2.1-10C947.6,165,947.3,165,947,165"/>
		<polygon class="st32" points="460,351 459,350 455,354 451,350.1 450.1,351 454,355 450,359 451,360 455,356 459,360 460,359 
			456,355 		"/>
		<polygon class="st56" points="512.6,371 513.7,371 513.7,379 517.7,379 517.7,380 512.6,380 		"/>
		<rect x="519.8" y="371" class="st56" width="1.1" height="9"/>
		<path class="st56" d="M523.4,371h1.2l1.5,4.9c0.3,1.1,0.5,1.9,0.9,3h0c0.3-1.1,0.6-1.9,0.9-3l1.4-4.9h1.2l-2.9,9h-1.3L523.4,371z"
			/>
		<polygon class="st56" points="532.9,371 538.1,371 538.1,372 534,372 534,374.8 537.4,374.8 537.4,375.8 534,375.8 534,379 
			538.2,379 538.2,380 532.9,380 		"/>
	</g>
</g>
</svg>
