<?xml version="1.0" encoding="utf-8"?>
<!-- Generator: Adobe Illustrator 16.0.0, SVG Export Plug-In . SVG Version: 6.00 Build 0)  -->
<!DOCTYPE svg PUBLIC "-//W3C//DTD SVG 1.1//EN" "http://www.w3.org/Graphics/SVG/1.1/DTD/svg11.dtd">
<svg version="1.1" id="Layer_1" xmlns="http://www.w3.org/2000/svg" xmlns:xlink="http://www.w3.org/1999/xlink" x="0px" y="0px"
	 width="32px" height="32px" viewBox="0 0 32 32" style="enable-background:new 0 0 32 32;" xml:space="preserve">
<style type="text/css">
<![CDATA[
	.st0{clip-path:url(#SVGID_2_);fill-rule:evenodd;clip-rule:evenodd;fill:#F04A5E;}
]]>
</style>
<g>
	<defs>
		<rect id="SVGID_1_" x="8" y="8" width="50" height="50"/>
	</defs>
	<clipPath id="SVGID_2_">
		<use xlink:href="#SVGID_1_"  style="overflow:visible;"/>
	</clipPath>
	<path class="st0" d="M22.4,12.2c-0.1-0.1-0.1-0.2-0.2-0.2c-0.1-0.1-0.2-0.2-0.3-0.3v0.2c-0.4,0-0.7,0.3-0.7,0.7l0,0.1
		c0,0.4,0.3,0.7,0.7,0.7v0.3c0.4,0.6,0.7,1.4,0.7,2.2c0,0.8-0.3,1.6-0.7,2.2v0.3c-0.4,0-0.7,0.3-0.7,0.7l0,0.1
		c0,0.4,0.3,0.7,0.7,0.7v0.2c0.2-0.1,0.3-0.2,0.4-0.3c0,0,0.1-0.1,0.1-0.1c1-0.9,1.6-2.3,1.6-3.8C24,14.5,23.4,13.2,22.4,12.2
		 M19.1,8.7c0,0-0.1,0-0.1,0c-0.1,0-0.3,0-0.4,0.1l-5.8,2.8l-2,0v0h-0.7c-0.8,0-1.4,0.6-1.4,1.4l0,5.9c0,0.8,0.6,1.4,1.4,1.4h0.7h0
		c0.4,0,0.7-0.3,0.7-0.7c0-0.4-0.3-0.7-0.7-0.7l0.7,0c-1.2,0-1.4-0.3-1.4-1.5l0,0l0-3.1l0,0.2c0-1.1,0.2-1.4,1.1-1.4l1.6,0
		c0.1,0,0.1,0,0.2,0c0,0,0,0,0,0c0,0,0.1,0,0.1,0c0,0,0.1,0,0.1-0.1l5.1-2.4l0,11L14,19.3c-0.3-0.2-0.7-0.2-1,0.2
		c-0.2,0.3-0.2,0.8,0.2,1l5.5,2.7c0.1,0.1,0.3,0.1,0.5,0.1c0,0,0,0,0,0c0.4,0,0.7-0.3,0.7-0.7l0-13.1C19.8,9,19.5,8.7,19.1,8.7
		 M10.1,18.9L10.1,18.9L10.1,18.9L10.1,18.9z M10.1,13.1L10.1,13.1l0.4,0L10.1,13.1z"/>
</g>
</svg>
