<?xml version="1.0" encoding="utf-8"?>
<!-- Generator: Adobe Illustrator 16.0.0, SVG Export Plug-In . SVG Version: 6.00 Build 0)  -->
<!DOCTYPE svg PUBLIC "-//W3C//DTD SVG 1.1//EN" "http://www.w3.org/Graphics/SVG/1.1/DTD/svg11.dtd">
<svg version="1.1" id="Layer_1" xmlns="http://www.w3.org/2000/svg" xmlns:xlink="http://www.w3.org/1999/xlink" x="0px" y="0px"
	 width="32px" height="32px" viewBox="0 0 32 32" style="enable-background:new 0 0 32 32;" xml:space="preserve">
<style type="text/css">
<![CDATA[
	.st0{clip-path:url(#SVGID_2_);fill:#F04A5E;}
]]>
</style>
<g>
	<defs>
		<rect id="SVGID_1_" x="10" y="6" width="50" height="50"/>
	</defs>
	<clipPath id="SVGID_2_">
		<use xlink:href="#SVGID_1_"  style="overflow:visible;"/>
	</clipPath>
	<path class="st0" d="M16,6c-3.3,0-6,2.7-6,6c0,4,3,6,3,9v2c0,0,1,1,3,1c2,0,3-1,3-1v-2c0-3,3-5,3-9C22,8.7,19.3,6,16,6 M14,22.5V21
		h4v1.5c-0.4,0.2-1,0.5-2,0.5C15,23,14.4,22.7,14,22.5 M17.9,19.8h-1.2V15c0-1.2,1-1.3,1.3-1.3c0.4,0,0.7-0.3,0.7-0.7
		c0-0.4-0.3-0.7-0.7-0.7c-0.6,0-1.4,0.2-2,0.8c-0.4-0.5-1.1-0.8-2-0.8c-0.4,0-0.7,0.3-0.7,0.7s0.3,0.7,0.7,0.7c1.2,0,1.3,1,1.3,1.3
		v4.8h-1.2c-0.2-1.2-0.8-2.2-1.4-3.2c-0.8-1.4-1.5-2.8-1.5-4.6c0-2.6,2.2-4.8,4.8-4.8c2.6,0,4.8,2.2,4.8,4.8c0,1.8-0.7,3.2-1.5,4.6
		C18.7,17.6,18.2,18.6,17.9,19.8"/>
</g>
</svg>
