<?xml version="1.0" encoding="utf-8"?>
<!-- Generator: Adobe Illustrator 17.0.0, SVG Export Plug-In . SVG Version: 6.00 Build 0)  -->
<!DOCTYPE svg PUBLIC "-//W3C//DTD SVG 1.1//EN" "http://www.w3.org/Graphics/SVG/1.1/DTD/svg11.dtd">
<svg version="1.1" id="Layer_1" xmlns="http://www.w3.org/2000/svg" xmlns:xlink="http://www.w3.org/1999/xlink" x="0px" y="0px"
	 width="32px" height="32px" viewBox="0 0 32 32" enable-background="new 0 0 32 32" xml:space="preserve">
<g>
	<path fill="#FF475C" d="M18.591,22h-5.455c-1.168,0-2.273-1.139-2.273-2.344v-7.5c0-2.843,2.243-5.156,5-5.156s5,2.313,5,5.156v7.5
		C20.864,20.861,19.76,22,18.591,22z M15.864,7.938c-2.256,0-4.091,1.893-4.091,4.219v7.5c0,0.683,0.701,1.344,1.364,1.344h5.455
		c0.662,0,1.364-0.66,1.364-1.344v-7.5C19.955,9.83,18.12,7.938,15.864,7.938z"/>
</g>
<path fill="#FF475C" d="M16.864,25c0,0.552-0.448,1-1,1l0,0c-0.552,0-1-0.448-1-1v-3c0-0.552,0.448-1,1-1l0,0c0.552,0,1,0.448,1,1
	V25z"/>
<g>
	<path fill="#FF475C" d="M17.864,13.5c-0.809,0-1.178-0.738-1.447-1.276C16.205,11.8,16.042,11.5,15.864,11.5
		c-0.293,0-0.767,0.473-1.146,0.854c-0.563,0.564-1.146,1.146-1.854,1.146c-1.107,0-1.687-1.347-1.687-2.5
		c0-0.276,0.224-0.499,0.499-0.5c0.001,0,0.001,0,0.001,0c0.275,0,0.499,0.223,0.5,0.499c0.002,0.612,0.384,1.501,0.687,1.501
		c0.293,0,0.767-0.473,1.146-0.854c0.563-0.564,1.146-1.146,1.854-1.146c0.809,0,1.178,0.738,1.447,1.276
		c0.212,0.424,0.375,0.724,0.553,0.724c0.448,0,1.373-0.863,1.735-1.586c0.124-0.247,0.427-0.346,0.671-0.223
		c0.247,0.124,0.347,0.424,0.224,0.67C20.303,11.742,19.11,13.5,17.864,13.5z"/>
</g>
<path fill="#FF475C" d="M21.864,8c0,0,3,0,3,2c0,0,0,1-1,1S22.864,8,21.864,8z"/>
</svg>
